<svg xmlns="http://www.w3.org/2000/svg" viewBox="0 0 1920 1080">
  <defs>
    <style>
      .a1 {
        fill: #a9cbff;
      }

      .b1 {
        fill: #e6e6e6;
      }

      .c1 {
        fill: #ccc;
      }
    </style>
  </defs>
  <title>back-up</title>
  <g>
    <rect class="a1" width="1920" height="1080.075"/>
    <g>
      <path class="b1" d="M317.142,246.157c-14.77-19.2-40.976-28.821-64.66-23.75s-43.652,24.582-49.268,48.143a19.095,19.095,0,0,0-31.069,19.695c-18.1-3.517-38.134-1.517-52.805,9.651s-21.893,32.873-13.074,49.065c6.086,11.174,18.681,17.964,31.378,18.806s25.341-3.7,35.88-10.832a104.672,104.672,0,0,0,165.851-4.228c27.291,14.224,56.468,26.546,87.211,27.949s63.5-9.858,81.336-34.937c6.94,8.585,21.549,8.213,29.383.434s8.966-20.758,4.371-30.8-14-17.27-24.264-21.344a66.165,66.165,0,0,0-44.42-1.11c-14.6-22.011-47.2-29.609-70.025-16.321-7.132-17.965-23.18-31.579-41.6-37.424C338.25,231.825,317.142,246.157,317.142,246.157Z"/>
      <path class="c1" d="M318.2,245.1c-15.686-19.867-42.755-29.744-67.509-23.822-23.78,5.689-43,25.285-48.926,48.876l2.507-.662c-6.929-5.764-17.006-7.076-24.83-2.182-7.78,4.867-10.99,14.663-8.747,23.337l1.845-1.845c-24.708-4.571-54.424.842-66.8,25.25-5,9.858-6.586,21.784-2.388,32.212,4.426,10.992,14.641,18.633,25.9,21.628,15.643,4.16,31.883-1,45.018-9.658L172.463,358c33.279,40.374,92.139,50.719,137.022,23.816a107.9,107.9,0,0,0,31.186-28.348l-2.053.538c30.061,15.605,63.129,29.585,97.684,28.174,27.994-1.143,56.1-12.583,72.915-35.7l-2.356.3c7.022,8.006,19.5,8.776,28.241,3.062,10.131-6.624,12.775-20.53,9.306-31.514-9.023-28.573-46.987-34.571-71.815-26.873l1.694.69c-15.571-22.743-48.026-30.39-72.077-16.859l2.2.9a67.941,67.941,0,0,0-43.5-38.72c-14.572-4.27-31.925-1.048-44.533,7.4-1.6,1.07-.1,3.669,1.514,2.591,11.46-7.68,27.163-10.941,40.539-7.56,18.973,4.8,35.63,19.007,43.083,37.086a1.527,1.527,0,0,0,2.2.9c22.563-12.694,53.328-5.606,67.973,15.783a1.542,1.542,0,0,0,1.694.689c22.007-6.824,52.325-3.079,65.236,18.457,5.735,9.568,6.174,23.282-1.89,31.765-7.306,7.686-20.629,8.213-27.755.088a1.52,1.52,0,0,0-2.356.3c-16.757,23.042-45.5,33.9-73.32,34.3-33.015.47-64.412-12.917-93.174-27.847a1.55,1.55,0,0,0-2.052.538c-18.745,25.269-49.056,41.389-80.59,42.193-31.75.809-62.776-13.848-82.906-38.268a1.5,1.5,0,0,0-1.817-.235c-13.541,8.928-30.406,13.979-46.229,8.26-14.143-5.112-23.665-18.055-22.5-33.279,1.091-14.322,10.17-26.952,22.659-33.666,13.7-7.367,30.023-8.044,45.054-5.263a1.52,1.52,0,0,0,1.845-1.846c-4.341-16.787,15.114-29.423,28.562-18.236a1.519,1.519,0,0,0,2.507-.662c5.686-22.639,24.026-41.3,46.832-46.78,23.78-5.714,49.575,4.034,64.59,23.05C317.277,248.732,319.387,246.6,318.2,245.1Z"/>
    </g>
    <g>
      <path class="b1" d="M1271.042,276.393c-18.667-23.427-43.171-43.476-72.245-50.685s-62.96.639-81.5,24.163a76.794,76.794,0,0,0-112.675,18.341c-13.861-4.33-28.567-8.7-42.676-5.263s-26.608,17.884-22.422,31.789a26.334,26.334,0,0,0-24,44.618c-8.3-2.483-18.111,2.427-21.1,10.56s1.315,18.226,9.249,21.7c-1.554,7.4,4.375,14.717,11.445,17.4s14.919,1.89,22.434,1.05c56.979-6.369,115.237-13.315,171.137-.569,24.143,5.5,48.635,14.693,72.97,10.1,19.636-3.7,37.239-16.175,57.2-17.184,10.178-.515,20.224,2.016,30.274,3.7s20.694,2.476,30.148-1.327,17.248-13.385,15.968-23.5c11.664,13.731,33.219,17.836,49.113,9.355s24.484-28.674,19.571-46.007c10.353,4.483,22.948-4.96,24.253-16.167s-6.125-22-15.715-27.939-21.024-7.985-32.172-9.718a33.938,33.938,0,0,0-57.563-1.833C1284.75,255.825,1271.042,276.393,1271.042,276.393Z"/>
      <path class="c1" d="M1272.1,275.332c-19.714-24.542-46.168-46.234-77.874-52.144-28.124-5.242-59.574,2.806-78,25.622h2.122a79.881,79.881,0,0,0-62.636-16.174c-21.425,3.718-40.5,16.733-52.4,34.819l1.694-.69c-15.643-4.87-34.074-10.494-49.826-2.947-11.637,5.575-20.579,18.133-17.118,31.319l1.845-1.845c-11.861-2.242-24.712,3.083-30.548,13.932-5.824,10.828-3.341,24.51,5.088,33.193l1.46-2.507c-9-2.276-19.153,2.175-22.694,11.01-3.654,9.117,1.063,19.763,9.689,24l-.689-1.694c-1.664,11.225,8.069,19.191,18.353,20.708,7.215,1.065,14.541-.09,21.723-.893,7.941-.889,15.881-1.776,23.828-2.608,32.32-3.382,64.907-5.917,97.4-3.81a286.37,286.37,0,0,1,49.286,7.4c14.934,3.636,29.732,8.2,45.079,9.793,15.206,1.575,29.134-1.147,43.279-6.636,13.722-5.326,27.367-11.773,42.438-11.281,17.021.555,33.845,7.979,50.953,3.952,12.21-2.874,23.3-13.224,22.175-26.546l-2.561,1.061c12.431,14.068,34.21,18.478,50.931,9.589s25.006-29.622,20.261-47.7l-1.845,1.845c9.4,3.564,19.645-2.069,24.037-10.672,5.051-9.9.952-21.516-6.07-29.293-9.126-10.106-22.834-13.721-35.776-15.938-2.162-.371-3.791-.422-5.331-2.016-.753-.779-1.32-1.843-2.02-2.692A36.38,36.38,0,0,0,1335.2,252.7c-13.249-1.672-26.182,4.762-33.761,15.535l2.052-.538c-12-8.3-25.9-3.637-33.739,7.94-1.086,1.6,1.512,3.1,2.59,1.514,6.94-10.247,19.019-14.2,29.635-6.864a1.529,1.529,0,0,0,2.053-.538c8.244-11.719,23.373-17.272,37.1-12.617,7.236,2.454,12.619,7.138,17.092,13.176,2.895,3.909,10.415,3.338,15.055,4.422,13.481,3.147,27.818,9.969,32.41,24.16,2.141,6.615,1.226,13.709-3.416,19.031-4.529,5.192-11.337,7.784-17.941,5.282-1.11-.421-2.113.823-1.845,1.845,4.415,16.819-3.325,36.053-18.882,44.312-15.585,8.275-35.769,3.925-47.295-9.12a1.514,1.514,0,0,0-2.561,1.061c1.348,15.917-14.678,24.251-28.419,24.7-14.432.47-28.278-4.874-42.66-5.136-12.658-.231-24.477,4.312-36.044,8.939-12.881,5.153-25.495,9.663-39.579,9.542-14.789-.127-29.21-4.013-43.432-7.685a328.715,328.715,0,0,0-41.166-8.254c-29.061-3.659-58.483-2.929-87.622-.647-16.589,1.3-33.132,3.113-49.667,4.96-8.036.9-16.576,2.594-24.634,1.2-8.132-1.409-16.771-7.659-15.4-16.9a1.55,1.55,0,0,0-.69-1.694c-7.01-3.439-11.264-11.706-8.756-19.393,2.6-7.975,11.585-12.119,19.449-10.13a1.512,1.512,0,0,0,1.46-2.507c-7.494-7.719-9.757-19.9-4.619-29.557,5.117-9.62,16.634-14.543,27.16-12.554a1.519,1.519,0,0,0,1.845-1.845c-3.463-13.195,7.3-25.484,19.341-29.361,14.421-4.644,30.06.367,43.912,4.68a1.531,1.531,0,0,0,1.694-.689,76.861,76.861,0,0,1,49.1-33.162c21.418-4.18,44.127,1.7,61.222,15.125a1.525,1.525,0,0,0,2.122,0c18.365-22.746,50.051-30.438,77.925-24.271,30.063,6.651,54.826,27.293,73.7,50.792C1271.19,278.959,1273.3,276.824,1272.1,275.332Z"/>
    </g>
    <g>
      <g>
        <path class="b1" d="M1700.888,406.473c7.248-5.492,18.436-5.571,27.778-3.432a91.252,91.252,0,0,1,43.649,24.037c2.824,2.8,5.566,5.989,6.37,9.887s-1.038,8.6-4.862,9.7c8.295,7.266,7.549,21.5.223,29.745s-19.291,11.069-30.26,9.939-21.257-5.666-31.333-10.145c-13.713,13.879-35.792,15.09-55,11.66s-37.97-10.6-57.478-10.25c-6.745.119-14.09.993-19.692-2.766-5.163-3.463-7.381-10.192-6.927-16.392s3.163-12,6.115-17.469c4.217-7.819,9.642-15.828,18.022-18.775s19.846,2.292,19.822,11.175a55.171,55.171,0,0,1,34.212-34.574c15.925-5.385,33.323-1.163,48.173,6.717A6.227,6.227,0,0,1,1700.888,406.473Z"/>
        <path class="c1" d="M1701.645,407.768c13.2-9.23,32.292-3.033,45.42,3.311a89.966,89.966,0,0,1,19.4,12.645c2.995,2.568,6.277,5.359,8.494,8.644,2.614,3.872,4.157,10.576-1.537,12.853a1.52,1.52,0,0,0-.662,2.507c5.518,5.243,6.732,13.142,4.389,20.238-2.432,7.364-8.666,12.516-15.841,15.02-16.4,5.724-33.181-1.451-48.1-8.074a1.569,1.569,0,0,0-1.818.234c-27.907,27.195-70.139,4.172-102.322,1.317-8.537-.758-20.579,2.239-28.029-2.907-9.693-6.7-6.13-20.125-1.848-28.792,3.749-7.588,8.55-16.1,16.372-20.091,7.375-3.761,19.706-1.02,20.251,8.717a1.508,1.508,0,0,0,2.947.4,54.019,54.019,0,0,1,31.075-32.764,48.874,48.874,0,0,1,25.781-2.373,69.448,69.448,0,0,1,11.719,3.055c3.859,1.356,9.408,2.961,12.489,5.826,1.413,1.314,3.539-.8,2.122-2.121-2.6-2.42-6.5-3.716-9.737-5.045a74.206,74.206,0,0,0-14.948-4.466,52.254,52.254,0,0,0-28.224,2.232,57.212,57.212,0,0,0-33.17,34.858l2.946.4c-.715-12.766-16.54-16.33-26.031-10.6-6.617,4-11.011,10.793-14.609,17.442-3.712,6.86-7.163,14.565-6.2,22.556.782,6.51,4.374,12.438,10.613,14.934,7.886,3.155,17.311,1.01,25.579,1.667,19.5,1.551,37.913,9.141,57.346,11.105,17.008,1.719,35.3-.853,48-13.227l-1.817.234c17.283,7.672,38.109,16.134,56.192,5.771,12.981-7.438,18.821-26.432,7-37.666l-.662,2.507c6.6-2.639,7.447-10.316,4.134-16.008-4.836-8.309-14.532-14.923-22.614-19.755-15.08-9.016-39.391-18.517-55.611-7.173C1698.56,406.276,1700.058,408.878,1701.645,407.768Z"/>
      </g>
      <g>
        <path class="b1" d="M1821.775,463.281c4.854-.5,10.715-.364,13.357,3.738,2.158,3.35.923,8.073-1.9,10.884s-6.833,4.065-10.752,4.785c-5.786,1.062-11.879,1.144-17.431-.8-3.19-1.118-6.316-3.076-7.7-6.162s-.3-7.384,2.857-8.6c-3.831.149-7.062-3.48-7.489-7.29s1.355-7.562,3.745-10.56c4.9-6.141,13.154-10,20.776-8.105s15.574,11.774,10.728,17.956C1826.25,461.325,1821.775,463.281,1821.775,463.281Z"/>
        <path class="c1" d="M1821.775,464.781c4.685-.411,12.579-.706,12.951,5.924.328,5.841-5.683,8.877-10.442,10.06a35.578,35.578,0,0,1-15.448.608,18.559,18.559,0,0,1-6.965-2.7c-3.347-2.356-5.656-7.66-.906-10.244a1.513,1.513,0,0,0-.757-2.8c-10.6-.722-4.658-13.957-.149-17.979,4.416-3.939,10.819-6.622,16.783-5.03,4.479,1.2,9.163,5.042,10.628,9.56,1.655,5.109-2.3,7.927-6.452,9.8-1.757.794-.233,3.38,1.514,2.591,5.833-2.635,10.092-7.064,7.613-13.741a18.654,18.654,0,0,0-17.233-11.642c-8.443.123-16.865,5.911-20.355,13.545-3.04,6.65-.461,15.339,7.651,15.892l-.757-2.795c-5.794,3.152-4.96,10.543-.4,14.437,6.8,5.81,17.9,5.407,26.035,3.385,6.527-1.623,13.8-6.5,12.506-14.238-1.254-7.5-9.726-8.173-15.813-7.639C1819.867,461.949,1819.849,464.951,1821.775,464.781Z"/>
      </g>
      <g>
        <path class="b1" d="M1863.75,435.825c4.227-1.146,9.6,1.427,10.177,5.247s-1.715,7.622-4.829,9.908-6.941,3.341-10.686,4.287a22.318,22.318,0,0,1-7.433.976,7.894,7.894,0,0,1-6.266-3.625c-1.783-3.212-.08-7.257,2.314-10.043C1850.25,438.825,1863.75,435.825,1863.75,435.825Z"/>
        <path class="c1" d="M1864.149,437.271c5.253-.95,10.1,3.049,7.453,8.573-1.661,3.468-5.33,5.4-8.791,6.612a35.978,35.978,0,0,1-9.958,2.318c-6.121.222-9.227-5.068-5.459-10.144,3.495-4.709,11.273-6.122,16.755-7.359,1.882-.425,1.086-3.318-.8-2.893-5.329,1.2-11.932,2.633-16.269,6.134-5.778,4.664-6.5,14.43,1.642,16.8,4.929,1.436,11.052-.526,15.661-2.252,4.238-1.587,8.179-4.1,10.1-8.363,3.547-7.9-3.459-13.708-11.13-12.321C1861.454,434.721,1862.258,437.613,1864.149,437.271Z"/>
      </g>
    </g>
  </g>
</svg>
