<svg xmlns="http://www.w3.org/2000/svg" xmlns:xlink="http://www.w3.org/1999/xlink" viewBox="0 0 771.782 799.836">
    <defs>
        <style>
            .a{fill:#aae3ff;}.b{fill:url(#a);stroke:url(#b);}.c{fill:#0a7fff;}.d{fill:#e9c500;stroke:#000;}
        </style>
        <linearGradient id="a" x1="134.39" x2="574.207" y1="400.092" y2="400.092" gradientUnits="userSpaceOnUse">
            <stop offset="0" stop-color="#340c8e"/>
            <stop offset="0.611" stop-color="#6b2ea3"/>
            <stop offset="1" stop-color="#8941af"/>
        </linearGradient>
        <linearGradient id="b" x1="153.576" x2="614.576" y1="400.092" y2="400.092" gradientUnits="userSpaceOnUse">
            <stop offset="0" stop-color="#fff"/>
            <stop offset="1" stop-color="#9c9c9c"/>
        </linearGradient>
    </defs>
    <title>
        flying_star
    </title>
    <polygon points="393.294 799.836 270.384 561.831 4.641 528.153 193.016 337.71 142.927 74.566 382.26 194.872 617.046 65.918 576.587 330.714 771.782 514.16 507.444 557.507 393.294 799.836" class="a"/>
    <polygon points="154.399 733.75 195.057 468.985 0 285.393 264.37 242.244 378.701 0 501.433 238.097 767.151 271.975 578.633 462.276 628.525 725.457 389.282 604.972 154.399 733.75" class="a"/>
    <circle cx="384.076" cy="400.092" r="230" class="b"/>
    <path d="M385,649c2.88-9.475,5.456-19.054,8.689-28.407,17.435-50.441,44.892-94.82,81.536-133.533,53.1-56.1,118.11-92.66,191.115-116,16.151-5.164,32.486-9.656,49.075-13.187,6,4.487,12.262,8.677,17,14.638-11.178,3.244-22.482,6.109-33.513,9.792Q570.763,425.087,480.818,525.954A224.869,224.869,0,0,0,459.8,552.779c2.84.738,5.078.1,7.319-.222,10.374-1.5,20.741-3.058,31.124-4.494,1.175-.163,2.785-1.011,3.6.451.637,1.138-.588,2.155-1.092,3.154a261.288,261.288,0,0,0-16.987,41.515c-3.238,10.636-6.162,21.344-7.111,32.872l52.316-55.618c2,15.759,2.419,30.93,10.576,44.9,6.913-15.11,13.709-29.375,21.482-43.146,29.8-52.794,66.271-100.256,112.354-139.963,20.877-17.988,43.208-33.925,67.683-46.729-1.969,10.667-4.129,21.285-8.16,31.417-3.082.151-5.025,2.431-7.286,4.024-49.834,35.114-87.869,80.687-117.414,133.57a581.969,581.969,0,0,0-63.258,173.635c-.817,4.192-1.609,8.389-2.432,12.685-10.686-7.458-23.207-39.4-35.106-89.676-25.033,39.339-49.587,77.923-74.9,117.707-6.9-53.92-2.9-105.4,13.87-157.011-6.843,4.423-12.666,8.164-18.466,11.939q-19.046,12.4-38.081,24.8c-1.507.978-2.831,2.389-4.83,2.4Z" class="c" transform="translate(-231.924 -88.908)"/>
    <path d="M732.413,372.51c-4.736-5.961-11-10.151-17-14.638-9.676-8.351-19.354-16.7-29.541-25.489,8.858-1.651,17.409-1.521,25.859-2.211q22.643-1.848,45.336-3.012c3.1-.164,3.845-1.868,4.73-4.078q12.045-30.082,24.154-60.14c.666-1.653.893-3.576,2.736-4.956,8.1,20.127,16.47,40.019,24.006,60.225,2.407,6.454,5.317,9.141,12.44,9.446,20.943.9,41.847,2.724,62.765,4.191.792.056,1.58.164,3.34.35-9.359,7.84-18.09,15.167-26.835,22.478-9.069,7.581-18.093,15.218-27.267,22.67-2.481,2.015-3.309,3.742-2.421,7.131,5.431,20.734,10.529,41.557,15.709,62.357.4,1.6.564,3.254.838,4.883l-.328.353c-4.177-1.351-7.5-4.208-11.14-6.467-15.839-9.824-31.653-19.691-47.313-29.8-3.163-2.041-5.324-1.923-8.411.049-18.09,11.557-36.321,22.892-54.51,34.294-1.355.849-2.75,1.635-4.955,2.942,2.743-11.043,5.237-21.173,7.792-31.288.41-1.622.973-3.189.508-4.885,4.031-10.132,6.191-20.75,8.158-31.414.879-1.975,2.813-4.193.622-6.068C738.77,376.941,736.3,373.738,732.413,372.51Z" class="d" transform="translate(-231.924 -88.908)"/>
</svg>
