<svg xmlns="http://www.w3.org/2000/svg" xmlns:xlink="http://www.w3.org/1999/xlink" viewBox="0 0 401 451"><defs><style>.a{fill:#c2e9e9;}.a,.b{stroke:#000;stroke-miterlimit:10;}.b{fill:url(#a);}.c{fill:#0b8700;}.d{fill:#8a0007;}.e{fill:none;}</style><linearGradient id="a" x1="0.5" y1="316" x2="400.5" y2="316" gradientUnits="userSpaceOnUse"><stop offset="0" stop-color="#009422"/><stop offset="0.38" stop-color="#049419"/><stop offset="0.994" stop-color="#0f9400"/></linearGradient></defs><title>background</title><rect class="a" x="0.5" y="0.5" width="400" height="450"/><path class="b" d="M400.5,181.5c-21.35,5.389-41.118,18.53-53.869,36.483-16.331,22.993-21.414,51.9-32.66,77.762-3.663,8.424-8.12,16.718-14.813,23.011-13.653,12.837-33.906,15.161-52.634,15.815s-38.543.575-54.629,10.191c-10,5.98-17.592,15.192-26.481,22.73a96.544,96.544,0,0,1-51.338,22.158C74.466,394.088,40.356,377.937.5,377.5v73h400Z"/><path class="c" d="M400,379c-26.522-6.026-58.107-7.993-82,5s-39,24-67.764,30.117C216.42,421.308,182.572,427.264,148,427.8c-25.911.4-55.329,5.2-79,5.2-34.252,0-68-3-68-3v20H400Z"/><path d="M377.138,189.443a302.726,302.726,0,0,0-16.677-43.03c-.832-1.741-3.419-.221-2.59,1.514a297.676,297.676,0,0,1,16.374,42.314c.557,1.843,3.453,1.058,2.893-.8Z"/><path d="M27,377.5l-.136,1.344h3a81.291,81.291,0,0,1,2.653-17.426,1.5,1.5,0,0,0-2.893-.8,85,85,0,0,0-2.76,18.223c-.084,1.959,2.809,1.885,3,0L30,377.5c.194-1.919-2.807-1.9-3,0Z"/><path d="M339.555,258.374a283.148,283.148,0,0,1-17.36-38.683c-.651-1.8-3.551-1.024-2.893.8a288.547,288.547,0,0,0,17.662,39.4c.92,1.7,3.511.186,2.591-1.514Z"/><path d="M382.823,280.522l-4.666-37.479c-.235-1.891-3.238-1.915-3,0l4.666,37.479c.235,1.891,3.238,1.914,3,0Z"/><path d="M367.63,416.488l-5.611-59.99c-.178-1.906-3.18-1.924-3,0l5.611,59.99c.178,1.906,3.18,1.924,3,0Z"/><path d="M294.966,322l-1.979-17c-.221-1.895-3.223-1.918-3,0l1.979,17c.22,1.895,3.223,1.917,3,0Z"/><path d="M82.1,400.423l5.425-34.512c.3-1.889-2.593-2.7-2.892-.8l-5.426,34.512c-.3,1.889,2.594,2.7,2.893.8Z"/><path class="d" d="M359.5,147.5c-10.358,6.983-21.682,14.716-32.04,21.7l40.091-2.875c.3-.021-8.354-18.8-8.051-18.824"/><path d="M359.121,146.852c-10.693,7.214-21.346,14.486-32.039,21.7-.567.383-.419,1.455.378,1.4l40.091-2.875a.77.77,0,0,0,.75-.75c.111-2.334-2.448-6-3.349-8.037-1-2.264-2.017-4.525-3.01-6.794-.447-1.02-1.745-2.881-1.692-3.993.046-.965-1.454-.963-1.5,0-.078,1.639,1.608,4.093,2.238,5.527,1.575,3.579,3.2,7.136,4.742,10.728a7.164,7.164,0,0,1,.826,1.954c-.027,1.393.084-.35-.915,0-3.616,1.275-9.52.683-13.363.958l-24.818,1.78.379,1.4c10.693-7.214,21.346-14.486,32.04-21.7.8-.537.046-1.837-.758-1.3Z"/><path class="d" d="M319.95,221.011a416.791,416.791,0,0,0-42.934,15.763q25.477,3.192,51.15,4.41C320.5,220.5,319.95,221.011,319.95,221.011Z"/><path d="M319.751,220.288a436.316,436.316,0,0,0-43.114,15.839c-.773.331-.251,1.319.379,1.4q25.489,3.155,51.15,4.41a.755.755,0,0,0,.723-.95c-.375-1.009-7-21.746-9.317-20.621-.868.422-.109,1.716.757,1.3-1.149.557-.886-.666-.532.494a19.158,19.158,0,0,0,.942,2.028c.854,1.92,1.62,3.884,2.389,5.839.971,2.469,3.377,6.215,3.345,8.761-.03,2.435-1.946,1.474-4.225,1.346q-2.957-.167-5.914-.36-6.4-.42-12.8-.961-13.285-1.125-26.516-2.782l.379,1.4a432.692,432.692,0,0,1,42.755-15.688C321.069,221.45,320.677,220,319.751,220.288Z"/><path class="d" d="M291.5,305.5c-13.193,4.261-27.856,9.8-41.049,14.062,11.814,2.478,24.088,5.311,36.049,6.938a58.256,58.256,0,0,0,7-4C293.5,317.5,291.5,305.5,291.5,305.5Z"/><path d="M291.3,304.777c-13.755,4.476-27.294,9.586-41.049,14.062-.66.215-.766,1.285,0,1.447,9.469,2,18.917,4.137,28.46,5.764,2.363.4,5.881,1.611,8.178,1.106,1.5-.329,3.139-1.633,4.431-2.386,3.571-2.081,3.02-3.138,2.586-7.325-.421-4.063-1.017-8.116-1.684-12.144-.157-.951-1.6-.547-1.446.4.515,3.115.977,6.241,1.359,9.374.177,1.453,1.215,5.183.6,6.582-.551,1.249-2.21,1.852-3.446,2.544-4.937,2.767-11.519.211-16.852-.818-7.284-1.4-14.527-3.012-21.786-4.542v1.447c13.755-4.477,27.294-9.586,41.049-14.063C292.613,305.926,292.222,304.477,291.3,304.777Z"/><path class="d" d="M360.02,358.267q-28.453,10.74-55.776,24.207c19.591.939,38.832,8.967,58.366,7.2C364.5,389.5,360.02,358.267,360.02,358.267Z"/><path d="M359.821,357.544q-28.541,10.821-55.955,24.282c-.714.351-.308,1.357.378,1.4,13.593.8,26.677,4.654,40.119,6.5,3.022.416,6.061.741,9.11.873,2.028.088,7.542.98,9.237-.19.849-.587.844-.847,1.063-1.933,1.074-5.307-.707-12.2-1.339-17.49q-.773-6.467-1.691-12.917c-.136-.952-1.582-.547-1.446.4,1.314,9.187,2.941,18.634,3.019,27.929.005.592.233,1.922-.083,2.422-.544.86-4.732.359-6.023.349a110.073,110.073,0,0,1-18.924-2.108c-10.994-2.016-21.848-4.675-33.042-5.335l.379,1.4q27.224-13.369,55.6-24.13C361.113,358.652,360.726,357.2,359.821,357.544Z"/><path class="d" d="M85.5,366.5c-9.145,1.572-24.855,2.428-34,4,8.555,4.65,20.263,16,30,16C82.5,386.5,85.5,366.5,85.5,366.5Z"/><path d="M85.3,365.777c-11.268,1.848-22.732,2.152-34,4a.758.758,0,0,0-.18,1.371c6.587,3.725,12.326,8.771,18.957,12.429,2.208,1.218,9.706,5.5,12.114,3.316,1.848-1.676,1.922-7.461,2.321-9.71q.928-5.229,1.71-10.484c.142-.944-1.3-1.351-1.446-.4q-.573,3.806-1.214,7.6c-.525,3.121-.53,7.944-2.092,10.723-.409.728-.132.882-.775,1.165-.937.411-3.971-.842-5.034-1.231a44.283,44.283,0,0,1-8.6-4.556c-5.122-3.293-9.876-7.149-15.183-10.151l-.18,1.371c11.268-1.848,22.732-2.152,34-4C86.65,367.067,86.246,365.622,85.3,365.777Z"/><path class="d" d="M30.447,361.644a14.684,14.684,0,0,0-4.817-.052c-4.146.413-11.984.5-16.13.908,5.469,2.695,12.74,5.917,18,9C28.832,372.281,30.447,361.644,30.447,361.644Z"/><path d="M30.647,360.921c-3.337-.524-6.762.091-10.12.248-3.677.172-7.36.253-11.027.581-.67.06-1.109,1.04-.379,1.4,4.267,2.085,8.59,4.054,12.824,6.206,1.469.746,4.608,3.575,6.34,2.707,2.3-1.154,2.539-7.968,2.886-10.218.145-.944-1.3-1.351-1.447-.4-.246,1.6-.559,7.719-1.925,8.645-1.269.86-6.8-2.889-8.211-3.577-3.227-1.573-6.484-3.084-9.709-4.661l-.379,1.4c3.278-.293,6.569-.385,9.855-.529,3.547-.155,7.382-.905,10.893-.354C31.192,362.515,31.6,361.07,30.647,360.921Z"/><path class="d" d="M377.091,244.434l-28.243,14.483c10.124.894,28.945,4.7,29.652,2.583C379.5,258.5,377.091,244.434,377.091,244.434Z"/><path d="M376.712,243.786,348.47,258.269c-.721.37-.3,1.333.378,1.4,6.355.605,12.65,1.694,18.98,2.5,2.5.319,8.393,2.036,10.655.334,1.908-1.437.969-5.418.785-7.459-.325-3.617-.847-7.231-1.454-10.811-.161-.95-1.607-.547-1.446.4.465,2.747.866,5.509,1.179,8.277a32.028,32.028,0,0,1,.445,6.007c-.176,2.128-.212,2.279-2.406,2.462-4.322.36-9.157-.883-13.4-1.487-4.439-.634-8.877-1.3-13.343-1.725l.379,1.4,28.242-14.482C378.329,244.641,377.571,243.346,376.712,243.786Z"/><rect class="e" x="0.5" y="0.5" width="400" height="450"/></svg>