<svg xmlns="http://www.w3.org/2000/svg" xmlns:xlink="http://www.w3.org/1999/xlink" viewBox="0 0 1920 1080">
  <defs>
    <style>
      .a {
        fill: none;
      }

      .b {
        fill: gray;
      }

      .c, .m, .n {
        fill: #333;
      }

      .d {
        fill: #999;
      }

      .e {
        fill: #666;
      }

      .f {
        fill: #8cc63f;
      }

      .f, .w {
        stroke: #000;
      }

      .f, .q {
        stroke-miterlimit: 10;
      }

      .g {
        fill: #006837;
      }

      .h {
        fill: #002a05;
      }

      .i {
        fill: #ff4a4f;
      }

      .j {
        fill: #fcee21;
      }

      .k {
        fill: #1a1a1a;
      }

      .l {
        fill: #fff;
      }

      .m {
        font-size: 37.31px;
      }

      .m, .n {
        font-family: IzhitsaCyrillic, Izhitsa;
      }

      .n {
        font-size: 22.824px;
      }

      .o {
        fill: #b3b3b3;
      }

      .p {
        font-size: 82.985px;
        fill: #8a8a8a;
        font-family: Candara-Bold, Candara;
        font-weight: 700;
      }

      .q {
        fill: #a3a3a3;
        stroke: #4a4a4a;
        stroke-width: 8px;
      }

      .r, .u {
        fill: #515151;
      }

      .s {
        fill: #aaa;
      }

      .t {
        fill: #fdfdfd;
      }

      .u {
        font-size: 58.235px;
        font-family: Candara, Candara;
      }

      .v {
        fill: #4d4d4d;
      }

      .w {
        fill: #815331;
        stroke-linecap: round;
        stroke-linejoin: round;
        stroke-width: 2px;
      }

      .x {
        fill: #fff5e9;
      }

      .y {
        fill: #cacfde;
      }

      .z {
        clip-path: url(#a);
      }
    </style>
    <clipPath id="a">
      <path class="a" d="M878.25,852.825c-2.567-35.436-1.312-65,0-100.5l-1.5-12c45.6-4.226,96.172-4.482,141.89-7.187.61-.313,13.922-1.8,13.922-1.8-2.839,41.408-2.954,75.6.188,116.988l-13.5,1.5c-54.957,0-69.631-.111-124.5,3Z"/>
    </clipPath>
  </defs>
  <title>back-down</title>
  <g>
    <g>
      <path class="b" d="M252.332,727.815c24.3-15.742,33.179-55.439,25.918-83.49l-16.5,3c4.5,43.5-33,76.5-37,76.875C215.284,725.087,252.332,727.815,252.332,727.815Z"/>
      <path class="c" d="M253.089,729.11c26.207-17.5,33.836-56.171,26.607-85.184a1.535,1.535,0,0,0-1.845-1.048l-16.5,3a1.5,1.5,0,0,0-1.1,1.447c2.323,25.067-8.789,49.5-26.014,67.327a54.768,54.768,0,0,1-7.461,6.727c-1.285.912-3.009.936-4.129,1.742-4.53,3.261,7.142,4.17,8.19,4.287,7.147.8,14.324,1.377,21.5,1.907,1.926.142,1.917-2.859,0-3q-8.46-.626-16.906-1.433c-3.143-.306-6.827-1.344-9.961-1.19-.194.01-1.108-.374-1.279-.276-.8.466-.427,2.149.564,2.284a3.705,3.705,0,0,0,1.764-.589c5.122-2.378,9.634-7.9,13.233-12.041a103.463,103.463,0,0,0,16.595-25.808,79.96,79.96,0,0,0,6.908-39.937l-1.1,1.446,16.5-3-1.845-1.048c6.886,27.64-.19,65.073-25.229,81.8C249.977,727.587,251.477,730.186,253.089,729.11Z"/>
    </g>
    <g>
      <path class="b" d="M252.057,728.555c9.822,29.171,28.371,84.6,38.193,113.77l-30,12-37.5-129Z"/>
      <path class="c" d="M250.61,728.954q19.147,56.868,38.194,113.769l1.047-1.845-30,12,1.845,1.048L228.855,740.95,224.2,724.926l-1.446,1.9,29.307,3.23c1.916.212,1.9-2.79,0-3l-29.307-3.23a1.509,1.509,0,0,0-1.446,1.9L254.145,838.7l4.659,16.024a1.509,1.509,0,0,0,1.845,1.048l30-12a1.527,1.527,0,0,0,1.047-1.845Q272.55,785.058,253.5,728.157C252.89,726.336,249.992,727.117,250.61,728.954Z"/>
    </g>
    <g>
      <path class="b" d="M161.25,489.825c10.5,0,27-3,27-3,1.5,10.5,18,58.5,18,58.5l-27,9C174.75,549.825,161.25,489.825,161.25,489.825Z"/>
      <path class="c" d="M161.25,491.325a165.262,165.262,0,0,0,27.4-3.054l-1.845-1.048c1.734,11.251,6.068,22.4,9.562,33.187q4.111,12.692,8.438,25.313l1.047-1.845-17.676,5.892c-1.927.642-7.287,1.379-8.666,2.889-.674.737.369.623.407.029.044-.677-1.108-2.374-1.363-3.028-5.7-14.642-8.866-30.559-12.5-45.807q-1.718-7.2-3.358-14.427c-.424-1.883-3.317-1.086-2.892.8q3.566,15.834,7.567,31.568c1.869,7.351,3.784,14.7,6.026,21.95,1.139,3.681,2.121,8.684,4.792,11.644a1.476,1.476,0,0,0,1.46.386l27-9a1.519,1.519,0,0,0,1.047-1.845q-4.334-12.618-8.437-25.313c-3.494-10.786-7.828-21.937-9.563-33.187a1.528,1.528,0,0,0-1.845-1.048,160.247,160.247,0,0,1-26.6,2.947A1.5,1.5,0,0,0,161.25,491.325Z"/>
    </g>
    <g>
      <path class="b" d="M254.25,572.325c-22.5-19.5-42-27-48-27-6.185,0-29.994,9.187-27,9,24-1.5,54.548,33.7,58.67,34.176C240.75,588.825,255.853,573.714,254.25,572.325Z"/>
      <path class="c" d="M255.311,571.264A159.388,159.388,0,0,0,225.96,550.81c-5.542-2.911-11.986-6.264-18.333-6.884-5.7-.557-11.971,2.165-17.234,4-2.42.843-12,2.87-12.845,5.959a1.522,1.522,0,0,0,.69,1.694c1.31.662,3.227.177,4.658.294a34.7,34.7,0,0,1,8.709,2,71.552,71.552,0,0,1,15.69,8.291c8.75,5.861,16.469,12.948,24.465,19.756,1.456,1.24,3.561,3.585,5.569,3.983,2.271.451,4.492-1.627,6.118-2.932,2.476-1.988,14.628-11.3,12.1-15.407-1.01-1.641-3.606-.136-2.59,1.515-.389-.631-.262-.15-.608.429a17.242,17.242,0,0,1-1.5,1.985c-1.184,1.451-2.491,2.814-3.809,4.142-1.856,1.872-5.631,6.628-8.36,7.057-1.671.263-3.141-1.485-4.521-2.654-2.9-2.459-5.724-5.015-8.614-7.492-7.072-6.061-14.428-11.939-22.528-16.582a61.738,61.738,0,0,0-12.239-5.523,37.15,37.15,0,0,0-6.1-1.378c-.942-.128-1.884-.222-2.834-.26-.532-.021-3.271-.414-2.094.181l.689,1.694c-.274,1,.286.172,1.229-.2,1.165-.461,2.309-.978,3.476-1.435q4.239-1.66,8.566-3.085c4.651-1.541,9.963-3.766,14.93-2.842,6.152,1.145,12.122,4.244,17.551,7.218a159.359,159.359,0,0,1,27,19.049C254.648,574.636,256.779,572.523,255.311,571.264Z"/>
    </g>
    <path class="c" d="M178.966,556a1.5,1.5,0,0,0,0-3,1.5,1.5,0,0,0,0,3Z"/>
    <g>
      <path class="d" d="M344.25,638.325s0-1.5-.161-4.263c-1.342-22.95-8.337-45.26-15.376-67.145,0,0-15.943,2.154-17.463,2.408-18,3-43.5,10.5-73.33,19.176,0,0-16.961-15.372-22.67-19.176-11.064-7.374-22.376-15-31.5-15h-4.5a406.027,406.027,0,0,1-18.522-64.193,234.214,234.214,0,0,1-65.374,13.992c5.858,20.276,12.038,40.425,17.9,60.7l-6,4.5c-6,4.5-13.3,12.39-20.524,23.259C80.25,602.325,74.343,623.1,74.343,623.1l-62.072,1.442c.682,9.919.895,17.4,1.979,27.286,1.229,11.209,6.75,23.25,9.75,33.75,19.5-4.5,39-7.5,58.719-14.131,0,0,.531,1.381,2.031,5.881a69.083,69.083,0,0,0,7.858,15.794,122.354,122.354,0,0,0,49.259,40.071l.975.014a1150.333,1150.333,0,0,1,9.852,130.5s109.056-4.88,107.556-9.38c-11.4-34.212-24-79.5-34.5-115.5-.256-.878-3.2-13.527-3.2-13.527,27.083-15.277,42-47.455,39.8-77.993,0,0,5.555-1.268,6.9-1.48C297.75,641.325,315.375,640.341,344.25,638.325Zm-222-28.5c5.161-6.655,14.106-12.827,22.5-13.5l6,34.5c-21,3-37.5,6-37.5,6C115.142,628.619,117.089,616.478,122.25,609.825Zm9,70.5q-9-6.75-13.5-22.5c10.5-1.5,37.5-4.5,37.5-4.5s7.5,31.5,7.5,39C162.75,693.825,140.622,687.354,131.25,680.325Zm34.5-87a52.443,52.443,0,0,1,28.5,9c6.51,4.368,12.676,12.012,15,19.5-4.791,1.055-34.5,4.5-34.5,4.5Zm49.5,72c-1.777,6.081-3.879,8.238-8.087,12.974s-14.413,8.026-17.413,8.026c-3-7.5-6-24-9-37.5,17.4-2.689,36.345-5.409,36.345-5.409C218.458,649.33,216.952,659.5,215.25,665.325Z"/>
      <g>
        <path class="c" d="M345.75,638.325c-.178-24.543-8.163-48.691-15.591-71.807a1.555,1.555,0,0,0-1.845-1.048A417.525,417.525,0,0,0,272.186,577.1c-7.531,2.089-15.041,4.254-22.547,6.431q-3.23.936-6.459,1.876a14.257,14.257,0,0,0-2.817.82c.526-.3-2.048,1.166-1.423,1.175-.5-.007-1.971-1.774-2.28-2.05-6.339-5.673-12.663-11.578-19.569-16.563a124.305,124.305,0,0,0-21.339-12.876c-5.488-2.46-10.558-3.089-16.5-3.089l1.446,1.1a413.574,413.574,0,0,1-18.522-64.192,1.506,1.506,0,0,0-1.845-1.048,238.739,238.739,0,0,1-64.975,13.938,1.52,1.52,0,0,0-1.446,1.9c5.865,20.263,12.031,40.437,17.9,60.7l.689-1.694c-11.093,8.32-20.71,17.7-27.941,29.7-5.4,8.956-8.79,19.459-11.655,29.471l1.446-1.1-62.072,1.442a1.515,1.515,0,0,0-1.5,1.5c.69,10.31.718,20.875,2.523,31.07,1.851,10.447,6.27,20.232,9.26,30.364a1.531,1.531,0,0,0,1.845,1.048c19.641-4.487,39.547-7.791,58.719-14.13l-1.845-1.048c1.539,4.073,2.773,8.206,4.558,12.188,3.7,8.248,9.261,15.393,15.4,21.972a123.747,123.747,0,0,0,20.342,17.482,125.13,125.13,0,0,0,11.631,7.1c2.8,1.509,6.365,4.073,9.637,4.121l-1.5-1.5a1167.741,1167.741,0,0,1,9.852,130.5,1.517,1.517,0,0,0,1.5,1.5c24.588-1.1,49.185-2.444,73.721-4.4,6.95-.553,13.9-1.148,20.827-1.979,3.884-.466,8.353-.646,12.046-2.065.976-.375,1.985-.731,2.381-1.792.308-.824-.226-1.744-.455-2.5-1.071-3.52-2.294-7-3.413-10.506-4.42-13.851-8.6-27.779-12.7-41.728-7.348-25-15.2-49.958-21.106-75.341l-.689,1.694c27.589-15.941,42.524-47.921,40.54-79.288l-1.1,1.446c26.571-6.045,54.4-7.038,81.5-8.926,1.915-.134,1.93-3.135,0-3-27.364,1.906-55.469,2.929-82.3,9.033a1.511,1.511,0,0,0-1.1,1.447c1.919,30.344-12.326,61.254-39.054,76.7a1.538,1.538,0,0,0-.69,1.694c4.777,20.52,11.019,40.669,16.891,60.9,3.906,13.458,7.855,26.9,11.959,40.3q2.67,8.718,5.445,17.4c.9,2.793,1.472,6.426,2.922,8.97,1.3,2.291,1.136.235.17.6-3.567,1.344-7.847,1.554-11.586,2-6.5.773-13.036,1.339-19.566,1.865-15.36,1.238-30.746,2.172-46.132,3.024q-14.253.789-28.513,1.448l1.5,1.5a1167.741,1167.741,0,0,0-9.852-130.5,1.544,1.544,0,0,0-1.5-1.5c-3.163-.046-7.519-3.341-10.231-4.868a124.583,124.583,0,0,1-10.839-6.86,120.2,120.2,0,0,1-18.967-16.682C97.2,697.2,92.15,690.673,88.69,683.116c-1.8-3.936-3-8.032-4.524-12.071A1.525,1.525,0,0,0,82.321,670c-19.172,6.339-39.079,9.643-58.72,14.13l1.845,1.048c-2.827-9.584-6.935-18.837-8.93-28.658-2.117-10.428-2.037-21.391-2.745-31.979l-1.5,1.5L74.343,624.6a1.539,1.539,0,0,0,1.447-1.1c2.7-9.441,5.888-19.214,10.772-27.759,6.87-12.02,16.5-21.408,27.445-29.617a1.56,1.56,0,0,0,.689-1.694c-5.865-20.263-12.03-40.437-17.895-60.7l-1.447,1.9a241.683,241.683,0,0,0,65.773-14.045l-1.845-1.048A413.432,413.432,0,0,0,177.8,554.723a1.556,1.556,0,0,0,1.446,1.1,37,37,0,0,1,18,4.132,142.223,142.223,0,0,1,18.324,11.423c7.042,5.1,13.449,11.183,19.93,16.962,2.84,2.533,4.7,1.056,8.47-.041,7.72-2.245,15.44-4.489,23.176-6.675,12.934-3.653,25.926-7.271,39.12-9.871,7.551-1.488,15.215-2.361,22.839-3.392l-1.846-1.047c7.346,22.858,15.308,46.743,15.484,71.009A1.5,1.5,0,0,0,345.75,638.325Z"/>
        <path class="c" d="M123.311,610.885c5.358-6.6,12.806-12.045,21.439-13.06l-1.446-1.1,6,34.5,1.047-1.845c-12.528,1.8-25.045,3.742-37.5,6l1.845,1.845c2.036-9,3.313-18.983,8.849-26.641,1.133-1.567-1.468-3.066-2.59-1.515-5.7,7.881-7.059,18.1-9.151,27.359a1.521,1.521,0,0,0,1.845,1.845c12.455-2.258,24.972-4.2,37.5-6,.854-.123,1.171-1.133,1.047-1.845l-6-34.5a1.494,1.494,0,0,0-1.446-1.1c-9.439,1.11-17.649,6.663-23.561,13.939C119.982,610.25,122.092,612.385,123.311,610.885Z"/>
        <path class="c" d="M132.311,679.264c-6.981-5.492-10.633-13.5-13.115-21.838l-1.047,1.845c12.33-1.738,24.726-3.07,37.1-4.446l-1.446-1.1c2.507,10.551,4.966,21.172,6.69,31.881.218,1.357.434,2.717.576,4.084.038.367-.071,1.293.144,1.6.51.734.847-.276.9-.252-1.966-.96-5.184-1.053-7.35-1.711-7.891-2.4-16.02-5.445-22.753-10.3-1.569-1.13-3.068,1.471-1.514,2.591,7.179,5.174,16.044,8.448,24.488,10.9,3.778,1.1,9.559,3.635,9.158-2.159-.867-12.532-4.544-25.246-7.443-37.438a1.5,1.5,0,0,0-1.446-1.1c-12.642,1.406-25.3,2.777-37.9,4.553a1.511,1.511,0,0,0-1.047,1.845c2.615,8.785,6.524,17.371,13.885,23.162C131.69,682.566,133.828,680.457,132.311,679.264Z"/>
        <path class="c" d="M165.75,594.825c17.407-.521,36.342,10.68,42.054,27.4l1.047-1.845c-11.162,2.318-22.783,3.133-34.1,4.447l1.446,1.1-9-33a1.5,1.5,0,0,0-2.892.8l9,33a1.511,1.511,0,0,0,1.446,1.1c11.583-1.345,23.473-2.182,34.9-4.554a1.51,1.51,0,0,0,1.047-1.845c-6.146-17.99-26.146-30.163-44.946-29.6C163.824,591.882,163.816,594.882,165.75,594.825Z"/>
        <path class="c" d="M213.8,664.926c-3.188,10.171-13.015,19.279-24.054,19.9l1.446,1.1c-4.565-11.932-6.26-25.072-9-37.5l-1.047,1.845q18.157-2.8,36.344-5.409l-1.845-1.047c1.328,6.895.007,14.43-1.844,21.111a1.5,1.5,0,0,0,2.892.8c2-7.215,3.275-15.278,1.845-22.706a1.537,1.537,0,0,0-1.845-1.047q-18.186,2.613-36.345,5.408a1.522,1.522,0,0,0-1.047,1.845c2.74,12.43,4.434,25.568,9,37.5a1.544,1.544,0,0,0,1.446,1.1c12.412-.7,23.343-10.6,26.946-22.1C217.275,663.877,214.38,663.087,213.8,664.926Z"/>
      </g>
    </g>
    <g>
      <path class="b" d="M159.75,674.325c-15,1.5-22.5-10.5-24-18l-18,1.5s4.5,16.5,13.5,22.5c10.736,7.157,31.5,12,31.5,12Z"/>
      <path class="c" d="M159.75,673.575a21.8,21.8,0,0,1-23.277-17.45.752.752,0,0,0-.723-.55l-18,1.5a.76.76,0,0,0-.723.949c2.437,8.767,6.914,18.594,14.847,23.592,9.1,5.735,20.276,8.982,30.677,11.432a.761.761,0,0,0,.922-.923l-3-18c-.158-.95-1.6-.547-1.446.4l3,18,.922-.923c-9.963-2.346-20.4-5.474-29.265-10.649-5.506-3.213-8.991-8.333-11.675-14-1.14-2.408-1.8-5.073-2.958-7.448-.2-.41-.2-.987-.433-1.38-.486-.825-.772.443-.606.428,3.859-.359,7.725-.644,11.587-.966,1.405-.117,3.815-.833,5.154-.429,1.315.4.185-.125.45.157.425.452.577,1.951.791,2.522a23.019,23.019,0,0,0,23.756,15.238C160.707,675.007,160.715,673.506,159.75,673.575Z"/>
    </g>
    <g>
      <path class="b" d="M174.75,626.325c2.832-2.169,9.168-6.832,12-9l19.5-3,3,7.5Z"/>
      <path class="c" d="M175.129,626.972c3.635-2.766,7.873-7.28,12.069-8.963,2.722-1.091,6.618-1.018,9.5-1.461,2.834-.436,6.626-1.73,9.5-1.462-.583-.054-.507-.9-.269.452a13.02,13.02,0,0,0,.922,2.3c.279.7,1.667,4.6,1.991,3.646.274-.805-.25-.221-1.241-.2a37.847,37.847,0,0,0-3.933.513L192,623.325l-17.25,2.25c-.944.123-.956,1.624,0,1.5l34.5-4.5c.425-.056.926-.444.723-.95l-3-7.5a.781.781,0,0,0-.922-.524l-15.684,2.413a12.69,12.69,0,0,0-4.773,1.254c-3.947,2.231-7.609,5.659-11.223,8.409C173.613,626.254,174.36,627.557,175.129,626.972Z"/>
    </g>
    <g>
      <path class="b" d="M252.75,572.325c30.2-8.633,59.8-13.868,90-22.5-4.978,5.667-15,16.5-16.875,16.875-.52.1-88.125,22.125-88.125,22.125Z"/>
      <path class="c" d="M253.149,573.771c29.763-8.442,60.236-14.058,90-22.5l-1.46-2.507c-4.143,4.7-8.353,9.389-12.894,13.706a11.271,11.271,0,0,1-4.646,3.112c-5.626,1.784-11.565,2.9-17.287,4.333q-27.543,6.914-55.082,13.837l-14.429,3.626,1.46,2.507,15-16.5c1.3-1.426-.82-3.553-2.122-2.121l-15,16.5a1.513,1.513,0,0,0,1.46,2.507c28.831-7.247,57.8-14.074,86.524-21.728a10.153,10.153,0,0,0,4.5-2.35c5.338-4.544,10-10.063,14.633-15.308a1.512,1.512,0,0,0-1.46-2.507c-29.763,8.442-60.236,14.058-90,22.5A1.5,1.5,0,0,0,253.149,573.771Z"/>
    </g>
    <g>
      <path class="b" d="M342.75,549.825c10.821,24.549,22.5,67.5,22.5,78,0,3-21,12-21,10.5,0-18-12-61.5-16.5-72C327.159,564.946,342.75,549.825,342.75,549.825Z"/>
      <path class="c" d="M341.455,550.582c7.011,16.064,12.284,32.974,16.8,49.892,1.817,6.8,3.542,13.668,4.734,20.613.282,1.646,1.27,4.6.752,6.246-.6,1.893-4.111,3.285-5.788,4.177a84.455,84.455,0,0,1-7.977,3.706c-1.1.443-2.2.888-3.336,1.242a5.857,5.857,0,0,0-1.15.349c-1.386,1.228.376-.543.251.707.594-5.963-1.244-12.938-2.319-18.765a359.709,359.709,0,0,0-10.96-43.592c-.779-2.454-2.44-5.4-2.74-7.937-.248-2.1,1.686-3.609,3.335-5.4,3.457-3.761,7.088-7.373,10.753-10.932,1.387-1.347-.735-3.468-2.122-2.121-3.882,3.771-7.743,7.593-11.373,11.609-1.2,1.329-3.25,3.031-3.8,4.8-.554,1.789.525,3.355,1.138,5.061a317.334,317.334,0,0,1,12.761,48.706c.749,4,1.422,8.022,1.865,12.069.185,1.682-.341,6.855.722,8.177,2.2,2.73,9.785-1.881,12.052-2.921,3.261-1.494,10.611-4,11.639-8.041.467-1.835-.261-4.444-.54-6.261-.551-3.594-1.311-7.157-2.12-10.7a351.885,351.885,0,0,0-19.991-62.195C343.275,547.3,340.689,548.828,341.455,550.582Z"/>
    </g>
    <g>
      <path class="b" d="M12.75,624.825c5.97-8.173,18.782-10.762,27.577-15.771,0,0,36.923.771,38.423.771l-4.5,13.5Z"/>
      <path class="c" d="M13.811,625.885c5.855-7.42,15.439-9.819,23.65-13.682,2.142-1.007,2.716-1.652,4.916-1.606l6.563.136c9.934.205,19.874.528,29.81.592l-1.446-1.9-4.5,13.5,1.446-1.1-61.5,1.5c-1.927.047-1.934,3.047,0,3l61.5-1.5a1.549,1.549,0,0,0,1.446-1.1l4.5-13.5a1.512,1.512,0,0,0-1.446-1.9c-10.621-.068-21.247-.415-31.866-.635a52.9,52.9,0,0,0-5.726-.119c-1.965.179-3.368,1.176-5.211,2.042-8.454,3.971-18.23,6.511-24.258,14.151C10.506,625.263,12.615,627.4,13.811,625.885Z"/>
    </g>
    <g>
      <path class="b" d="M179.25,595.356a49.41,49.41,0,0,0-13.5-2.031l9,33,12-9C186.75,615.825,179.25,595.356,179.25,595.356Z"/>
      <path class="c" d="M179.449,594.633a48.242,48.242,0,0,0-13.7-2.058.757.757,0,0,0-.723.949l9,33a.755.755,0,0,0,1.1.448l8.654-6.491c1.843-1.382,3.465-1.872,3.563-4.017.158-3.462-2.822-8.63-3.963-11.846q-1.681-4.739-3.41-9.461c-.329-.9-1.779-.511-1.446.4q1.641,4.485,3.24,8.984c1.27,3.574,3.575,7.863,3.956,11.674.12,1.2.995.243-.806,1.555-1.662,1.21-3.292,2.469-4.937,3.7-1.317.988-3.689,2.117-4.646,3.485-1.117,1.6-.653-.735.129,1.134a1.89,1.89,0,0,1-.182-.67c.322-2.413-1.907-6.992-2.534-9.291l-3.547-13c-.795-2.915-1.229-6.4-2.493-9.141a2.886,2.886,0,0,1-.224-.821c.114,2.149-.922.158.533.945,1.087.589,4.829.387,5.868.544a42.848,42.848,0,0,1,6.167,1.429C179.976,596.362,180.371,594.915,179.449,594.633Z"/>
    </g>
    <g>
      <path class="b" d="M114,635.569c5.79-3.474,11.663-6.814,17.371-10.423,2.882-1.821,17.929-2.674,17.929-2.674l1.453,8.353Z"/>
      <path class="c" d="M114.375,636.217c3.426-2.047,6.873-4.058,10.3-6.1,2.607-1.555,5.372-3.784,8.242-4.8,4.022-1.429,8.742-1.51,12.966-1.848.77-.062,2.642-.6,3.331-.236-1.3-.686-.183,2.07,0,3.14a25.361,25.361,0,0,1,.785,4.516c.039-1.47,1.244-.453-.629-.631-2.591-.245-5.876.759-8.445,1.09l-11.5,1.485L114,634.819c-.944.122-.956,1.624,0,1.5l36.753-4.744a.767.767,0,0,0,.723-.95l-1.452-8.352a.752.752,0,0,0-.724-.551,111.8,111.8,0,0,0-13.872,1.471,18.019,18.019,0,0,0-6.78,2.767c-4.964,3.062-10.02,5.971-15.027,8.961A.751.751,0,0,0,114.375,636.217Z"/>
    </g>
    <g>
      <path class="b" d="M131.25,624.825c-1.532-4.118-1.357-9.776.8-13.6s9.879-8.087,14.2-8.9l-1.5-6c-27,1.5-33,40.5-31.5,40.187C115.123,636.122,131.25,624.825,131.25,624.825Z"/>
      <path class="c" d="M131.973,624.625c-3.54-11.088,4.045-19.162,14.476-21.577a.761.761,0,0,0,.524-.923l-1.5-6a.753.753,0,0,0-.723-.55c-17.818,1.344-28.025,18.237-31.6,34.184-.456,2.035-2.315,7.288.708,7.326,1.076.014,2.889-1.615,3.73-2.143,1.937-1.218,3.84-2.494,5.739-3.772q4.175-2.811,8.3-5.7c.785-.549.036-1.85-.758-1.295-5.157,3.609-11.228,6.658-16.016,10.686a4.1,4.1,0,0,1-1.428.785c.033,0,.651.852.362.168a6.642,6.642,0,0,1,.222-2.572,50.213,50.213,0,0,1,1.907-7.956c2.45-7.791,6.373-15.588,12.483-21.15a26.605,26.605,0,0,1,12.241-6.506c2.74-.588,3.269-1.572,3.913,1a12.148,12.148,0,0,1,.648,2.592c-.006,1.786.61.183-.656.76-4.482,2.046-9.488,3.773-12.537,7.957-3.1,4.248-3.015,10.28-1.483,15.079C130.819,625.94,132.268,625.548,131.973,624.625Z"/>
    </g>
    <g>
      <path class="b" d="M198.75,668.325l-9,18c24-3,29.13-33.472,27-28.5C212.25,668.325,198.75,668.325,198.75,668.325Z"/>
      <path class="c" d="M198.1,667.946l-9,18a.762.762,0,0,0,.847,1.1c13.8-2.016,24.3-13.718,27.55-26.977.346-1.407,1.008-4.406-1.2-3.011-1.161.732-2.424,4.153-3.509,5.2a18.041,18.041,0,0,1-6.463,3.863,23.383,23.383,0,0,1-7.572,1.45.75.75,0,0,0,0,1.5,23.97,23.97,0,0,0,12.324-3.587c1.923-1.227,5.8-4.18,6.045-6.7.239-2.437-.749-.367-1.129,1.123C212.755,672.6,202.8,683.666,189.551,685.6l.847,1.1,9-18C199.828,667.842,198.535,667.082,198.1,667.946Z"/>
    </g>
    <g>
      <path class="b" d="M194.25,647.325c1.5,6,4.5,21,4.5,21l-9,18s-10.5-37.5-9-37.5S194.25,647.325,194.25,647.325Z"/>
      <path class="c" d="M193.527,647.524c1.174,4.794,2.169,9.633,3.168,14.466.373,1.8,1.178,3.962,1.189,5.822.006,1.153.325-.357-.3,1.172-2.374,5.8-5.678,11.354-8.482,16.962l1.371.179c-2.35-8.4-4.633-16.827-6.727-25.3-.417-1.687-3.338-10.378-2.534-11.389.222-.279,5.825-.5,6.849-.615q3.1-.365,6.189-.75c.945-.118.957-1.62,0-1.5q-3.847.478-7.7.926c-1.132.129-5.314-.125-6.179.676-1.582,1.466.34,6.331.722,8.009,2.317,10.187,5.119,20.278,7.934,30.338a.759.759,0,0,0,1.371.179l3.848-7.7c1.5-3,4.187-6.675,4.98-9.958.454-1.882-.361-3.938-.757-5.865-1.1-5.364-2.192-10.738-3.5-16.057C194.744,646.188,193.3,646.585,193.527,647.524Z"/>
    </g>
  </g>
  <g>
    <g>
      <path class="d" d="M1315.774,771.177c14.572-38.973,20.4-56.38,34.976-95.352l4.712-13.6c3.665-11.378,12.793-20.534,23.555-25.736s23.028-6.719,34.959-5.992c8.94.545,18.187,2.481,25.174,8.086s11,15.648,7.443,23.869l-8.843,17.876c-23.523,47.336-34.872,75.376-54.064,124.627Z"/>
      <path class="c" d="M1317.22,771.576c9.43-25.239,18.467-50.62,27.765-75.906,3.6-9.781,7.241-19.531,10.652-29.378,3.959-11.429,10.124-20.555,20.834-26.753,13.6-7.868,31.325-9.544,46.574-6.4,12.772,2.632,28.482,14.053,22,29.055-2.541,5.887-5.72,11.568-8.566,17.316-6.3,12.719-12.482,25.493-18.386,38.4-13.011,28.438-24.5,57.515-35.858,86.645l2.2-.9-67.913-33.775c-1.723-.857-3.245,1.729-1.514,2.59l67.912,33.776a1.531,1.531,0,0,0,2.2-.9c11.26-28.888,22.653-57.725,35.555-85.928,6-13.119,12.294-26.1,18.7-39.026,3.035-6.129,7.032-12.345,9.155-18.861,3.871-11.885-4.92-23.557-15.318-28.3-12.836-5.858-29.357-5.609-42.829-2.364-13.13,3.163-25.418,10.792-32.512,22.5-4.052,6.691-5.929,14.7-8.562,22.01q-17.209,47.787-34.991,95.393C1313.651,772.589,1316.55,773.371,1317.22,771.576Z"/>
    </g>
    <g>
      <path class="e" d="M1382.25,804.825s63-138,65.66-148.75c1.025-4.139.34-10.25-7.1-15.938-2.173-1.661-6.063-4.812-6.063-4.812l6,3c10.523,4.914,18.482,20.122,18.818,31.731s-43.561,135.116-46.563,136.891c-.727.43-10.915-.622-17.255-.622A82.909,82.909,0,0,1,1382.25,804.825Z"/>
      <path class="c" d="M1383.545,805.582c21.108-46.239,42.751-92.377,62.122-139.376a72.734,72.734,0,0,0,3.651-9.584c2.648-10.45-6.433-16.635-13.507-22.358l-1.818,2.356c2.366,1.183,4.81,2.271,7.117,3.565,5.831,3.268,10.041,8.892,12.929,14.813,3,6.157,4.816,12.837,3.335,19.577-2.586,11.764-6.578,23.293-10.309,34.727-9.5,29.1-19.457,58.182-30.735,86.65-.895,2.258-2.2,8.362-4.314,9.872-.406.29.506-.368.3-.28-.805.342-2.573-.063-3.417-.105-3.089-.154-6.173-.4-9.263-.52a110.534,110.534,0,0,1-16.986-1.541c-1.886-.368-2.694,2.522-.8,2.893a84.366,84.366,0,0,0,14.514,1.559c5.03.1,10.989,1.552,15.95.714,2.622-.443,3.174-2.827,4.156-5.087,5.157-11.876,9.44-24.171,13.832-36.343q9.408-26.07,18.134-52.381c4.254-12.885,8.823-25.88,11.78-39.142,1.553-6.964.176-13.565-2.686-20.136A39.812,39.812,0,0,0,1446,639.842c-3.149-2.451-6.937-4.036-10.49-5.813-1.423-.711-3.221,1.221-1.818,2.356,6.418,5.191,15.213,10.626,12.514,20.179a82.955,82.955,0,0,1-3.429,8.844c-4.843,11.751-10,23.376-15.137,35q-18.6,42.093-37.719,83.959-4.473,9.853-8.963,19.7C1380.159,805.811,1382.744,807.337,1383.545,805.582Z"/>
    </g>
    <path class="c" d="M1410.956,665.58c2.461-9.7-8.792-14.8-16.855-14.5a21.718,21.718,0,0,0-20.433,17.556c-.656,3.578-.386,7.79,2.666,10.237,4.025,3.228,12.654,3.093,17.415,2.7,9.023-.736,18.812-7.7,15.019-17.811-.671-1.791-3.572-1.016-2.893.8,3.25,8.667-5.719,13.729-13.108,14.091-3.324.163-7.814.2-11.006-.828-5.326-1.716-6.137-6.365-4.484-11.155a18.593,18.593,0,0,1,13.391-12.129c6.162-1.312,19.756.925,17.4,10.235-.475,1.872,2.418,2.671,2.893.8Z"/>
    <path class="c" d="M1365.84,689.768l3.656-2.682-.331-1.254c-3.7,4.266,3.041,5.654,6.062,4.969l-.847-1.1a2.737,2.737,0,0,0,.691,3.994c2.054,1.426,4.393-.165,6.058-1.394l-1.128-.647-.122,1.447a.754.754,0,0,0,.75.75,9.247,9.247,0,0,0,6.319-2.642l-1.281-.53-.233,1.94a.754.754,0,0,0,1.129.648,11.281,11.281,0,0,1,6.682-1.768c1.329-.011,7.206-.325,6.016,3-.327.911,1.122,1.3,1.446.4,2.748-7.666-11.33-5.322-14.9-2.921l1.129.647.233-1.94c.083-.69-.85-.927-1.28-.53q-1.869,2.722-4.386,1.5a.754.754,0,0,0-1.129-.648q-2.06,2.4-4.7-.548c.4-.569-.26-1.234-.847-1.1l-4.6-2.462c.333-.384.269-1.15-.331-1.254-2.779-.481-4.987.866-5.5,3.73-.169.944,1.276,1.349,1.447.4Z"/>
    <path class="c" d="M1360.879,700.722l4.6-1.959-1.026-1.026a13.074,13.074,0,0,0-1.259,7.086.76.76,0,0,0,1.129.648l9.1-5.255-1.1-.847-1.95,6.148a.758.758,0,0,0,1.1.847A36.582,36.582,0,0,1,1382,702.189c3.257-.693,6.035-.632,8.639,1.854.93.888.64,1.753,1.676,2.687,3.653,3.293,8.629,1.126,12.34-.757.861-.437.1-1.732-.758-1.295-2.6,1.32-5.54,2.68-8.565,2.028-5.652-1.217-1.931-3.039-4.25-4.936a6.318,6.318,0,0,0-4.206-1.679c-5.553-.261-11.444,2.283-16.159,4.978l1.1.847,1.95-6.148a.758.758,0,0,0-1.1-.847l-9.1,5.254,1.128.648a9.836,9.836,0,0,1,1.054-6.329.757.757,0,0,0-1.026-1.026l-4.6,1.959c-.885.377-.121,1.669.758,1.295Z"/>
    <path class="c" d="M1389.42,654.118a86.285,86.285,0,0,0-12.694,10.376.753.753,0,0,0,.909,1.177,182.372,182.372,0,0,1,19.084-10.52l-.909-1.178-17.388,14.5c-.7.583.192,1.509.909,1.178a188.135,188.135,0,0,0,21.889-11.927l-.908-1.178-18.277,15.877c-.69.6.189,1.5.909,1.178a149.117,149.117,0,0,0,20.353-11.176l-.909-1.178L1387.1,675.151c-.677.615.183,1.5.909,1.178a131.054,131.054,0,0,0,18.209-9.941l-.909-1.178-9.857,11.315c-.631.725.426,1.79,1.061,1.06l9.857-11.315c.529-.607-.155-1.67-.909-1.177a131.008,131.008,0,0,1-18.21,9.941l.909,1.178,15.294-13.906a.753.753,0,0,0-.909-1.178,149.176,149.176,0,0,1-20.353,11.176l.909,1.178,18.276-15.877c.643-.559-.192-1.632-.909-1.178a188.285,188.285,0,0,1-21.889,11.927l.908,1.177,17.389-14.5c.695-.58-.19-1.52-.909-1.178a182.372,182.372,0,0,0-19.084,10.52l.909,1.178a84.255,84.255,0,0,1,12.39-10.141c.8-.535.048-1.835-.757-1.295Z"/>
  </g>
  <path class="f" d="M.75,918.825c207-106.5,549-175.5,673.5-196.5s303-55.5,558-28.5,361.964,61.663,489,106.5c127.5,45,198,126,198,126v152.888l-1918.5.112Z"/>
  <g>
    <g>
      <path class="g" d="M1742.418,815.089a82.376,82.376,0,0,1-14.8-56.543c5.769,22.645,22.835,40.667,41.091,55.255s38.458,26.982,54.429,44.042a62.147,62.147,0,0,1-23.882-44.566c29.682,36.787,82.977,73.911,106.049,95.066q1.7-18.3,1.563-36.719a133.439,133.439,0,0,1,9.837,57.167Z"/>
      <path class="h" d="M1743.714,814.332a82.358,82.358,0,0,1-14.593-55.786l-2.947.4c12.8,47.877,64.486,66.839,95.906,99.958l2.121-2.121a61.53,61.53,0,0,1-23.442-43.5l-2.56,1.06c30.269,37.219,70.924,63.04,106.048,95.067a1.521,1.521,0,0,0,2.561-1.061q1.65-18.322,1.563-36.719l-2.946.4a135.633,135.633,0,0,1,9.783,56.768l2.257-1.3-58.795-38.357-93.819-61.205-21.675-14.14c-1.622-1.058-3.127,1.538-1.515,2.59l58.8,38.357,93.818,61.205,21.676,14.14a1.514,1.514,0,0,0,2.257-1.295,137.793,137.793,0,0,0-9.89-57.565c-.6-1.475-2.955-1.421-2.947.4q.087,18.4-1.563,36.719l2.561-1.061c-35.124-32.026-75.779-57.847-106.049-95.066a1.513,1.513,0,0,0-2.561,1.061A64.452,64.452,0,0,0,1822.08,858.9c1.481,1.166,3.487-.681,2.121-2.121-30.993-32.669-82.532-51.482-95.134-98.635-.462-1.729-2.785-1.21-2.946.4a84.914,84.914,0,0,0,15,57.3C1742.224,817.414,1744.826,815.917,1743.714,814.332Z"/>
    </g>
    <g>
      <path class="g" d="M1800,1038.77a1031.656,1031.656,0,0,1-135.043-136.511,170.189,170.189,0,0,1,20.366,81.616c-26.777-44.937-72.289-72.826-118.1-93.391s-94.116-35.817-136.329-63.909c29.492,17.825,52.556,47.6,63.525,82a159.413,159.413,0,0,1-72.471-36.123l20.328,43.3C1590.275,1019.9,1800,1038.77,1800,1038.77Z"/>
      <path class="h" d="M1801.061,1037.709A1040.964,1040.964,0,0,1,1666.018,901.2c-1.118-1.359-3.131.375-2.356,1.818a170.792,170.792,0,0,1,20.161,80.859l2.795-.757C1645,914.05,1565.805,889.185,1495.99,858.992c-22.262-9.628-44.077-20.322-64.343-33.713l-1.514,2.591c30.015,18.379,52.01,47.757,62.836,81.1l1.845-1.845a160.39,160.39,0,0,1-71.809-35.738,1.507,1.507,0,0,0-2.356,1.818l12.681,27.011,6.773,14.426c2.423,5.16,9.554,8.04,14.169,11.07,34.935,22.937,72.64,41.464,111.451,56.854,62.613,24.827,128.481,41.9,194.965,52.471,13.039,2.073,26.156,4.041,39.312,5.23,1.922.173,1.91-2.828,0-3-37.147-3.357-74.236-10.8-110.474-19.363-76.193-18.006-151.63-44.488-218.748-85.309q-7.576-4.608-14.992-9.473-3.869-2.539-7.688-5.154c-1.306-.895-3.637-1.989-4.605-3.138-2.611-3.1-4.061-8.651-5.77-12.29l-14.484-30.849-2.356,1.817a163.47,163.47,0,0,0,73.133,36.51,1.517,1.517,0,0,0,1.846-1.846c-11.069-34.095-33.523-64.1-64.215-82.9-1.659-1.016-3.114,1.533-1.514,2.591,66.711,44.079,149.8,57.48,212.132,108.988a188.408,188.408,0,0,1,41.762,47.774,1.512,1.512,0,0,0,2.8-.757,174.061,174.061,0,0,0-20.571-82.373l-2.356,1.817a1041.026,1041.026,0,0,0,135.043,136.511C1800.409,1041.063,1802.542,1038.952,1801.061,1037.709Z"/>
    </g>
    <g>
      <path class="g" d="M1382.152,760.408a108.673,108.673,0,0,1-27.459-39.557,115.191,115.191,0,0,0,6.945,40.43,180.162,180.162,0,0,0-47.721-41.86,4.434,4.434,0,0,0-1.622,6.816,88.3,88.3,0,0,1-36.159-44.461c-3.9,14.058,2.888,28.073,10.931,40.245,2.183,3.3-29.317-13.2-29.317-13.2s3,36,34.5,51,103.5,16.5,103.5,16.5Z"/>
      <path class="h" d="M1383.212,759.348a109.954,109.954,0,0,1-27.073-38.9c-.6-1.469-2.944-1.426-2.946.4a120.976,120.976,0,0,0,7,40.829l2.507-1.46a185.525,185.525,0,0,0-48.025-42.094,1.507,1.507,0,0,0-1.514,0,6.027,6.027,0,0,0-2.161,8.868l2.053-2.052a88.051,88.051,0,0,1-35.469-43.565c-.487-1.3-2.51-1.546-2.893,0-2.35,9.494-.623,18.8,3.323,27.623,1.076,2.406,2.292,4.745,3.6,7.035q1.092,1.917,2.262,3.788c.509.817,1.777,4.36,2.445,2.045.526-1.828.5-.407-.689-1.265a17.97,17.97,0,0,0-3.038-1.212c-8.209-3.526-16.17-7.721-24.082-11.862a1.514,1.514,0,0,0-2.257,1.3c1.8,20.595,14.46,41.18,32.683,51,12.041,6.487,26.063,9.348,39.413,11.67,14.081,2.45,28.325,3.979,42.574,5.038,8.261.614,16.546,1.117,24.83,1.3a1.519,1.519,0,0,0,1.061-2.561l-13.6-15.916c-1.256-1.47-3.369.66-2.121,2.121l13.6,15.916,1.061-2.56a471.68,471.68,0,0,1-57.289-4.746c-13.452-1.947-27.116-4.4-39.882-9.2a58.767,58.767,0,0,1-31.907-28.313c-3.742-7.208-6.71-15.576-7.422-23.738l-2.257,1.295c8.745,4.577,17.6,9.561,26.856,13.014,2.2.82,5.336,1.522,4.513-1.87-.637-2.627-3.7-5.857-5.022-8.284a66.49,66.49,0,0,1-4.5-9.96,36.069,36.069,0,0,1-1.259-20.845h-2.893a91.417,91.417,0,0,0,36.847,45.357,1.511,1.511,0,0,0,2.053-2.052l1.043-3.866,1.464.912a19.788,19.788,0,0,1,3.619,2.342q3.234,2.146,6.373,4.429,6.815,4.965,13.133,10.567a184.713,184.713,0,0,1,21.356,22.478c.936,1.162,2.993-.091,2.507-1.46a118.52,118.52,0,0,1-6.892-40.031l-2.946.4a113.241,113.241,0,0,0,27.844,40.219C1382.505,762.78,1384.632,760.664,1383.212,759.348Z"/>
    </g>
    <g>
      <path class="g" d="M356.981,897.9a165.077,165.077,0,0,0-109.744,9.283c21.183-1.041,36.243.835,53.513,13.146-32.583,3.442-61.542,14.839-93,24s-59.1,20.657-84.652,41.161a114.469,114.469,0,0,1,64.369-5.754,167.3,167.3,0,0,0-82.824,58.041c51.9-22.754,104.2-45.071,158.741-60.472,33.963-9.591,58.538-3.769,109.366-16.476,12-3,12.87-12.726,15-13.5,16.5-6,36.561-8.524,55.5-7.5-30-34.5-52.5-7.5-52.5-31.5,0-6-1.5-33-1.5-33Z"/>
      <path class="h" d="M357.38,896.45a168.2,168.2,0,0,0-110.9,9.434c-1.373.616-.667,2.86.757,2.795,19.339-.884,36.59,1.642,52.756,12.941l.757-2.795c-33.757,3.731-66.01,15.708-98.334,25.52-29,8.8-56.535,21.124-80.378,40.08-1.155.919.094,3.036,1.459,2.507a115.125,115.125,0,0,1,63.571-5.753v-2.893a170.654,170.654,0,0,0-83.72,58.73c-1.032,1.343.878,2.567,2.052,2.052,51.159-22.421,102.733-44.472,156.545-59.8,17.8-5.07,35.945-6.366,54.3-7.9,9.954-.834,19.885-1.912,29.75-3.5q8.951-1.442,17.808-3.4c5.319-1.172,11.2-1.953,15.866-4.959a21.256,21.256,0,0,0,6.857-7.609c.53-.933.955-2.4,1.77-3.146,1.946-1.78,6.925-2.314,9.478-2.993a149.151,149.151,0,0,1,45.475-4.438,1.518,1.518,0,0,0,1.061-2.561c-7.972-8.966-17.638-16.519-29.6-19.017a72.72,72.72,0,0,0-10.935-1.217c-2.71-.148-6.241.076-8.607-1.5-2.951-1.963-2.843-6.038-2.918-9.183-.087-3.7-.233-7.4-.4-11.105q-.489-10.713-1.1-21.419a1.514,1.514,0,0,0-2.257-1.3L356.224,896.6c-1.571,1.1-.073,3.7,1.514,2.591l32.269-22.572-2.257-1.295q.624,11.241,1.143,22.489c.264,5.894-1.259,15.438,2.926,20.257,3.785,4.36,11.343,3.282,16.463,3.753,13.9,1.279,24.79,8.807,33.907,19.061l1.061-2.56a157.285,157.285,0,0,0-37.811,2.6c-5.384,1.055-13.324,2.009-18.088,4.952-1.573.972-2.16,2.247-3.065,3.867-5.771,10.325-17.666,11.2-28.337,13.3a339.979,339.979,0,0,1-34.411,4.852c-17.9,1.654-35.933,2.312-53.461,6.61-26.332,6.457-52.159,16.009-77.437,25.711-29.266,11.232-58.048,23.674-86.754,36.255l2.052,2.052a167.183,167.183,0,0,1,81.928-57.351c1.314-.416,1.537-2.6,0-2.893A117.982,117.982,0,0,0,122.7,984.04l1.459,2.507c23.872-18.98,51.637-31.113,80.692-39.8,31.585-9.446,62.945-21.277,95.9-24.919a1.515,1.515,0,0,0,.757-2.8c-16.568-11.58-34.432-14.256-54.27-13.35l.757,2.8a164.872,164.872,0,0,1,108.588-9.131A1.5,1.5,0,0,0,357.38,896.45Z"/>
    </g>
    <g>
      <path class="g" d="M410.25,780.825c-15-13.5-18-21-28.5-36,37.5,18,85.64,5.737,140.1-11.241L470.127,718a547.1,547.1,0,0,0,188.86.029L658.03,698.1c10.169,16.533,68.793,14.085,50.43,20.374-130.708,44.767-247.225,79.009-256.815,81.214-35.395,8.138-83.395,27.638-78.895,3.638,1.77-9.441,1.5-13.5-12-31.5C380.25,779.325,410.25,780.825,410.25,780.825Z"/>
      <path class="h" d="M411.311,779.764c-11.585-10.544-19.409-22.962-28.266-35.7l-2.052,2.053c19.935,9.354,42.054,10.4,63.636,7.8,26.479-3.187,52.235-10.992,77.618-18.89a1.513,1.513,0,0,0,0-2.893l-51.721-15.585-.8,2.892a553.965,553.965,0,0,0,189.658.029,1.5,1.5,0,0,0,1.1-1.446L659.53,698.1l-2.795.757c5.709,8.719,18.6,11.221,28.047,13.134,5.633,1.141,11.318,1.969,16.987,2.9,2.086.342,4.194.657,6.246,1.166a6.564,6.564,0,0,0,1.728.472c.285-.028.575.295.837.346.431.084.456-1.105.033-.991-2.706.726-5.512,2.158-8.2,3.075q-9.793,3.342-19.6,6.647-17.744,5.982-35.525,11.849-33.342,11.005-66.807,21.638-49.451,15.715-99.173,30.562c-19.811,5.871-39.774,10.971-59.7,16.443-9.293,2.552-18.664,5.178-28.214,6.587-5.061.746-15.3,2.579-18.6-2.86-2.623-4.331.756-11.156-.044-16.089-1.373-8.475-7.767-16.027-12.716-22.667l-1.694,2.2c15.714,5.876,33.19,8.192,49.9,9.054,1.93.1,1.924-2.9,0-3-16.464-.849-33.614-3.156-49.1-8.947a1.514,1.514,0,0,0-1.694,2.2c4.8,6.446,11.656,14.225,12.493,22.615.5,4.975-2.235,10.17-.289,14.99,4.255,10.541,22.951,5.539,30.816,3.847,16.97-3.651,33.611-8.889,50.444-13.115,7.03-1.765,13.981-3.9,20.934-5.94,33.065-9.689,65.985-19.882,98.836-30.272q35.094-11.1,70.058-22.6,18.6-6.121,37.166-12.363,9.311-3.132,18.609-6.3c4.091-1.392,8.85-2.345,12.664-4.453,2.348-1.3,3.191-3.381.522-4.9-3.817-2.176-9.674-2.182-13.9-2.854a185.728,185.728,0,0,1-21.077-4.234c-6.114-1.718-13.728-4.046-17.406-9.663-.768-1.173-2.871-.813-2.8.757l.957,19.929,1.1-1.447a549.641,549.641,0,0,1-188.062-.028,1.5,1.5,0,0,0-.8,2.892l51.722,15.586v-2.893c-24.6,7.655-49.568,15.265-75.2,18.58-21.493,2.779-43.825,2.158-63.745-7.189-1.222-.573-2.992.7-2.052,2.053,9,12.939,16.971,25.6,28.734,36.3C410.615,783.182,412.742,781.067,411.311,779.764Z"/>
    </g>
  </g>
  <g>
    <g>
      <path class="i" d="M1493.25,849.825c111.15-18.919,211.226-37.437,322.376-56.355-86.258-42.355-183.618-93.291-269.876-135.645Z"/>
      <path d="M1493.449,850.548c83.473-14.214,166.794-29.292,250.2-43.885q36.075-6.312,72.176-12.47a.756.756,0,0,0,.18-1.37c-70.775-34.768-140.8-71.032-211.243-106.464q-29.254-14.715-58.633-29.182a.761.761,0,0,0-1.1.448l-17.7,64.731L1499.072,825.69l-6.545,23.935a.75.75,0,0,0,1.446.4L1528.4,724.132l16.781-61.372c.22-.8.56-4.047,1.252-4.577.65-.5-4.9-.383.511,1.06,3.174.846,6.514,3.206,9.467,4.665q8.787,4.34,17.561,8.71,37,18.42,73.827,37.167c55.737,28.268,111.357,56.777,167.451,84.333l.18-1.371c-83.473,14.214-166.794,29.292-250.2,43.885q-36.075,6.311-72.176,12.469C1492.1,849.263,1492.5,850.709,1493.449,850.548Z"/>
    </g>
    <g>
      <path class="j" d="M1669.8,757.6c-.37,1.93-2.756,2.9-4.671,2.458s-3.437-1.851-4.86-3.207a9.142,9.142,0,0,1-3.264,15.5c2.453-1.6,5.808-2.077,8.312-.556s3.551,5.3,1.685,7.562a21.443,21.443,0,0,1,7.283-6.82,10.974,10.974,0,0,1,9.7-.49,8.672,8.672,0,0,1-1.735-15.434,7.276,7.276,0,0,1-8.2,1.433"/>
      <path class="j" d="M1669.155,757.217q-5.343,2.592-8.352-.9a.75.75,0,0,0-1.061,1.06c4.409,4.631,3.19,11.7-2.933,14.247l.578,1.37c3.176-1.726,13.2-1.122,8.97,5.98-.506.851.733,1.512,1.3.757,3.843-5.155,9.416-9.585,16.134-6.964.786.306,1.348-1.014.578-1.371-6.174-2.862-6.865-10.175-1.584-14.256l-1.06-1.061a7.159,7.159,0,0,1-7.47,1.24c-.906-.339-1.3,1.11-.4,1.446a8.4,8.4,0,0,0,8.929-1.625c.749-.636-.316-1.636-1.06-1.061-6.11,4.722-5.1,13.372,1.887,16.612l.578-1.371c-7.381-2.879-13.58,1.954-17.828,7.654l1.3.757a6.1,6.1,0,0,0-1.312-8.081c-2.9-2.357-6.679-1.6-9.71.049-.728.4-.22,1.7.578,1.371,7.11-2.963,8.965-11.113,3.6-16.753l-1.061,1.06c2.934,2.723,8.446,5.892,10.709.6.375-.877-.917-1.643-1.3-.757Z"/>
    </g>
    <g>
      <g>
        <path d="M1582.379,733.032c-13.068.671-24.856,10.489-29,22.9s-1.026,26.7,6.972,37.054,20.431,16.859,33.369,18.819c10.525,1.6,21.832.188,30.674-5.74,12.141-8.14,17.817-24.359,14.5-38.593s-14.9-25.94-28.771-30.561-26.1-8.208-38.868-1.086"/>
        <path d="M1582.379,731.532c-18.19,1.389-31.953,17.128-32.327,35.139-.424,20.371,14.064,37.2,32.606,43.881,17.38,6.266,39.445,4.335,51.094-11.473,11.006-14.934,9.44-35.4-2.288-49.377-7.335-8.745-17.036-13.229-27.755-16.417-11.363-3.378-22.411-4.42-33.216,1.244-1.711.9-.2,3.487,1.514,2.591,9.178-4.812,18.645-4.329,28.411-1.656,8.375,2.293,16.458,5.1,23.239,10.693,12.7,10.464,18.167,27.6,12.086,43.159-7.094,18.143-26.778,24.236-44.718,20.486-17.03-3.56-32.327-15.355-36.75-32.673-4.964-19.438,7.077-40.991,28.1-42.6,1.913-.146,1.929-3.147,0-3Z"/>
      </g>
      <g>
        <path d="M1602.928,738c-.745-8.283,9.324-14.143,17.475-12.5s14.378,8.038,20.057,14.113L1629,751.575"/>
        <path d="M1604.428,738c-.218-8.283,9.179-12.479,16.33-10.87,7.7,1.733,13.458,8.024,18.641,13.546v-2.121l-11.46,11.959c-1.336,1.394.783,3.519,2.122,2.121l11.459-11.959a1.53,1.53,0,0,0,0-2.121c-6.591-7.023-14.963-15.646-25.5-14.742-7.55.648-14.8,6.148-14.589,14.187.051,1.926,3.051,1.934,3,0Z"/>
      </g>
      <path d="M1630.476,729.514c21.83-8.222,43.351,11.964,39.146,34.213-.356,1.887,2.534,2.7,2.893.8,4.593-24.3-18.7-46.995-42.837-37.9-1.79.674-1.014,3.575.8,2.893Z"/>
    </g>
    <g>
      <path class="c" d="M1450.285,985.553a632.55,632.55,0,0,0-108.509,51.282,1.5,1.5,0,0,0,1.514,2.591,628.455,628.455,0,0,1,107.792-50.981c1.8-.651,1.025-3.551-.8-2.892Z"/>
      <path class="c" d="M1453.851,992.378c-34.883,13.953-70.669,27.675-102.358,48.151-1.616,1.045-.114,3.643,1.514,2.591,31.478-20.34,66.994-33.99,101.642-47.849,1.77-.708,1-3.611-.8-2.893Z"/>
    </g>
    <g>
      <path class="k" d="M1458.415,994.332q39.783-177.753,92.753-352.206s5.082-9.8-5.418-5.3c-11.369,4.872-100.5,351-97.5,355.5S1458.415,994.332,1458.415,994.332Z"/>
      <path d="M1459.138,994.531q32.541-145.255,73.839-288.357c6.225-21.553,11.942-43.489,19.294-64.676.8-2.305,1.818-5.654-1.335-6.532a7.548,7.548,0,0,0-6.431,1.951c-1.979,1.976-2.992,5.53-4.005,8.043-2.168,5.381-4.037,10.885-5.866,16.388-13.29,39.986-24.207,80.817-35.233,121.469q-19.049,70.227-36.624,140.85c-4.051,16.352-8.068,32.719-11.74,49.161-1.038,4.648-2.078,9.3-2.923,13.992-.3,1.641-1.168,4.2-.527,5.854,1.508,3.891,7.967,3.382,11.027,2.381.914-.3.523-1.748-.4-1.447-2.862.937-8.543,1.148-9.281-2.089a9.6,9.6,0,0,1,.407-3.059c.681-4.107,1.59-8.182,2.481-12.248,3.226-14.723,6.8-29.372,10.393-44.007q16.2-65.934,33.911-131.487c11.093-41.353,22.309-82.725,35.031-123.612,3.572-11.481,6.992-23.231,11.838-34.259,1.149-2.616,2.145-5.873,5.446-6.19,4.351-.418,3.081,2.327,2.189,4.865-1.344,3.823-2.418,7.768-3.587,11.653q-5.082,16.88-10.041,33.794-39.673,135.324-71.487,272.788-3.975,17.174-7.824,34.375C1457.481,995.073,1458.927,995.474,1459.138,994.531Z"/>
    </g>
    <g>
      <path class="l" d="M1599.658,740.882a34.427,34.427,0,0,0-32.081,9.108c-1.473,1.5-2.831,3.932-1.457,5.52,1.17,1.352,3.336.884,5.019.283a227.444,227.444,0,0,0,28.478-12.424,51.227,51.227,0,0,0-32.351,9.263l2.734-.057"/>
      <path class="l" d="M1600.057,739.435a36.607,36.607,0,0,0-21.6,1.639c-4.6,1.84-13.363,6.2-14.291,11.839-1.155,7.012,7.391,4.349,10.8,3.068a238.434,238.434,0,0,0,25.4-11.317c1.389-.716.647-2.736-.758-2.795a54.087,54.087,0,0,0-33.109,9.468,1.513,1.513,0,0,0,.758,2.795l2.734-.057c1.928-.041,1.934-3.041,0-3l-2.734.057.757,2.8a51.392,51.392,0,0,1,31.594-9.058l-.757-2.8c-4.879,2.513-9.825,4.888-14.865,7.062q-4.86,2.1-9.82,3.952c-2.046.768-8.873,3.474-4.993-2.564,2.5-3.89,9.465-6.587,13.66-7.778a33.337,33.337,0,0,1,16.417-.418c1.882.413,2.686-2.479.8-2.893Z"/>
    </g>
    <path class="l" d="M1617.054,726.259A13.69,13.69,0,0,0,1609,730.57c-1.306,1.419.811,3.546,2.121,2.121a11.128,11.128,0,0,1,6.727-3.539c1.9-.286,1.094-3.177-.8-2.893Z"/>
  </g>
  <g>
    <g>
      <g>
        <path class="d" d="M755.068,816.567l.912-319.175c.059-20.5.3-41.84,9.429-60.2,11.308-22.756,34.372-37.145,57.377-47.937,76.432-35.855,167.568-44.11,245.871-12.551,25.922,10.448,51.242,26.127,64.829,50.55,12.028,21.623,13.451,47.373,14.125,72.107,2.993,109.9,10.139,255.964,10.139,354.964l-402-7.5Z"/>
        <path class="c" d="M759.568,816.567l.775-271.3c.063-21.826-.489-43.756.436-65.565.839-19.759,4.825-39.252,18.061-54.612,11.695-13.572,27.439-22.9,43.4-30.611a333.68,333.68,0,0,1,55.127-20.722c37.792-10.584,77.463-14.59,116.56-10.694,36.748,3.662,75.621,14.129,106.328,35.307,15.107,10.419,27.731,24.409,34.265,41.744,7.015,18.612,8.008,38.707,8.566,58.382q1.557,54.924,3.626,109.83c2.668,74.056,5.69,148.135,6.414,222.243q.117,11.877.123,23.755l4.5-4.5-40.035-.747-96.123-1.794-115.758-2.159L805.3,843.249l-33.14-.618c-4.946-.093-10.82-1.091-15.725-.294a4.028,4.028,0,0,1-.685-.012l4.5,4.5-.682-30.258c-.131-5.783-9.131-5.8-9,0l.682,30.258a4.583,4.583,0,0,0,4.5,4.5l40.035.746,96.123,1.794,115.758,2.159L1108.2,857.9l33.14.618c5.188.1,10.54.586,15.725.294.226-.013.459.008.685.013a4.56,4.56,0,0,0,4.5-4.5c-.025-75.5-3.107-151-5.831-226.437-1.383-38.285-2.794-76.57-3.921-114.864-1.119-38.073-1.345-78.231-29.63-107.355-26.138-26.914-65.475-40.563-101.485-47.591-39.41-7.692-80.117-6.983-119.48.635a342.232,342.232,0,0,0-58.1,16.72c-17.549,6.769-35.142,14.573-50.685,25.273-14.778,10.174-27.414,23.248-34.205,40.075-7.718,19.122-7.387,40.33-7.445,60.6l-.8,280.276-.1,34.91C750.551,822.359,759.551,822.367,759.568,816.567Z"/>
      </g>
      <g>
        <path class="b" d="M765.5,436.575c11.725-40.914,56.288-83.317,95.709-99.36S964.77,317.285,1007,322.575c47.04,5.891,76.328,15.845,118.5,37.5,19.063,9.788,34.552,28.2,46.3,46.123,11.354,17.31,18.925,41.3,21.2,61.877,4.892,44.315,10.264,93.415,10.5,138,.448,84.735,9.052,188.19,9.5,272.925-13.71-1.931-46.464-24.821-58.455-31.745-2.045-1.18-8.065-370.959-8.065-370.959s-.494-25.051-9.237-41.386-40.3-60.06-95.771-67.448S912.261,350.3,856.88,375.439,794,399.075,777.5,420.075,765.5,436.575,765.5,436.575Z"/>
        <path class="c" d="M768.393,437.372c8.236-27.913,28.355-51.745,50.269-70.207a168.3,168.3,0,0,1,73.178-36.072c55.636-12.385,116.575-10.678,171.162,5.879a313.368,313.368,0,0,1,40.83,15.805c14.312,6.639,28.415,13.323,40.086,24.156a147.8,147.8,0,0,1,44.666,81.68c3,16.247,4.039,33.031,5.7,49.46,1.761,17.394,3.336,34.81,4.473,52.256,2.112,32.4,1.738,64.874,2.816,97.313,2.2,66.059,6.776,132.03,8.118,198.119q.236,11.619.306,23.239l3.8-2.893c-8.753-1.421-17.047-6.643-24.6-11.01-8.984-5.2-17.691-10.847-26.48-16.363a47.742,47.742,0,0,0-4.713-2.915c-1.5-.709-1.494-.358-.644.446-.157-.148-.009.547-.056-.539-.081-1.878-.246-3.755-.334-5.634-.887-18.8-1.227-37.643-1.678-56.462q-1.083-45.2-1.934-90.4-.976-49.524-1.855-99.049-.725-40.344-1.407-80.689c-.208-12.31-.292-24.629-.616-36.937-.377-14.311-2.738-29.719-9.331-42.538-6.69-13-16.628-24.787-27.226-34.748-16.072-15.106-35.6-26.606-57.045-32.07-11.92-3.036-24.385-4.1-36.57-5.616-13.194-1.636-26.416-3.073-39.677-4.043-27.009-1.975-54.37-2.11-81.141,2.447a177.873,177.873,0,0,0-38.117,10.695c-12.14,5.016-24.039,10.652-36.128,15.8-13.03,5.549-27.135,10.48-38.052,19.809-5.611,4.8-10.088,10.69-14.593,16.491-2.578,3.319-5.192,6.626-7.621,10.057-.755,1.066-1.853,2.317-1.989,3.675-.345,3.44,3.532,4.259,5.626,2.182,2.746-2.723-1.5-6.966-4.242-4.243-.547.542.976-.552,1.577-.478l2.59,1.486c1.72,2.531-.843,3.015.6,1.88a13.407,13.407,0,0,0,1.773-2.511c3.295-4.521,6.75-8.941,10.24-13.311a72.915,72.915,0,0,1,12.064-12.444c11.278-8.72,25.782-13.443,38.741-18.983,12.27-5.245,24.321-11.305,36.846-15.9a186.517,186.517,0,0,1,37.076-9.177c26.851-3.964,54.295-3.227,81.263-.958,12.605,1.061,25.173,2.506,37.721,4.1,12.157,1.546,24.386,2.807,36.14,6.441,20.257,6.263,38.373,18.181,53.139,33.289,10.379,10.62,20.685,23.379,25.3,37.71a111.689,111.689,0,0,1,5.051,31.721c.827,39.265,1.323,78.538,2.027,117.805q1.646,91.7,3.652,183.391c.456,19.418.859,38.845,1.654,58.252.136,3.317-.388,7.814.732,11.011,1.3,3.713,8.674,6.477,11.782,8.445,8.649,5.476,17.285,10.992,26.222,15.991,6.968,3.9,14.639,8.384,22.636,9.683,1.88.3,3.81-.776,3.8-2.893-.4-68.288-5.18-136.466-7.822-204.683-1.291-33.342-.933-66.755-2.611-100.071-1.8-35.728-5.45-71.428-9.657-106.946-3.725-31.45-16.673-59.839-37.322-83.745a116.613,116.613,0,0,0-36.384-28.518,405.867,405.867,0,0,0-42.007-18.609c-55.1-20.318-116.685-23.637-174.359-14.123-27.821,4.589-53.82,13.212-77.037,29.528-23.913,16.8-45.626,39.1-58.823,65.4a112.128,112.128,0,0,0-7.371,18.543C761.512,439.488,767.3,441.073,768.393,437.372Z"/>
      </g>
    </g>
    <g>
      <text class="m" transform="translate(836.667 585.448)">Размеры поля</text>
      <text class="n" transform="translate(925.666 616.388)">99х99</text>
    </g>
    <g>
      <text class="m" transform="translate(812.667 659.448)">Количество бомб</text>
      <text class="n" transform="translate(936.666 690.388)">200</text>
    </g>
  </g>
  <g>
    <ellipse class="o" cx="953.5" cy="464.5" rx="151" ry="76"/>
    <g>
      <text class="p" transform="translate(848.582 458.993)">Сапёр</text>
      <g>
        <rect class="q" x="859.996" y="464.92" width="211.263" height="37.915" rx="12" ry="12"/>
        <g>
          <path class="r" d="M887.972,455.479c-.154,1.639-.182,3.3-.5,4.909a3.926,3.926,0,0,0,1.212,3.839,23.088,23.088,0,0,1,6.152,10.872,4.4,4.4,0,0,0,2.919,3.342c2.4.936,4.756,1.969,7.114,3,.689.3,1.547.5,1.5,1.577-.047,1.049-.77,1.471-1.572,1.842-2.526,1.17-5.044,2.36-7.59,3.484a2.406,2.406,0,0,0-1.491,1.7,24.761,24.761,0,0,1-6.365,11.772c-2.277,2.276-1.282,4.843-.944,7.254a24.054,24.054,0,0,1-.085,6.182c-.168,1.468-1.314,1-2.137.613a20.131,20.131,0,0,1-5.211-3.733c-1.88-1.8-3.76-2.066-6.251-1.505a33.808,33.808,0,0,1-11.811.144,5.117,5.117,0,0,0-4.192.828,50.344,50.344,0,0,1-6.3,4.139c-1.506.829-1.989.484-2.065-1.2-.126-2.82.386-5.586.5-8.382a2.227,2.227,0,0,0-.618-1.875,32.836,32.836,0,0,1-8.009-14.29,3.134,3.134,0,0,0-1.951-2.328c-2.094-.954-4.146-2.008-6.182-3.083-1.88-.992-1.9-1.719-.011-2.751,2.076-1.136,4.184-2.236,6.358-3.162a3.416,3.416,0,0,0,2.1-2.448,25.043,25.043,0,0,1,7.234-12.882c1.338-1.237,1.418-2.826,1.2-4.515-.242-1.915-.39-3.842-.577-5.764a2.012,2.012,0,0,1,1.09-2.156c1.181-.639,1.154.7,1.74,1.024a59.885,59.885,0,0,1,6.959,4.435c.419.31.79-.167,1.188-.26a23.329,23.329,0,0,1,14.008.66,3.569,3.569,0,0,0,4.263-.858c1.777-1.927,4.158-3.056,6.128-4.724a1.533,1.533,0,0,1,1.581-.451c.776.3.349,1,.382,1.5.072,1.075.022,2.157.022,3.237Zm-19.043,43.292c7.791.25,13.558-3.011,17.617-10.046,3.538-6.134,2.677-12.235.446-18.137-3.3-8.737-10.466-12.1-19.41-11.491a18.523,18.523,0,0,0-13.468,7.128c-2.584,3.17-2.638,7.157-3.955,10.715-1.5,4.051.065,8.159,2.057,11.7C855.91,495.206,861.362,499.269,868.929,498.771Z"/>
          <path class="s" d="M868.929,498.771c-7.567.5-13.019-3.565-16.713-10.13-1.992-3.542-3.556-7.65-2.057-11.7,1.317-3.558,1.371-7.545,3.955-10.715a18.523,18.523,0,0,1,13.468-7.128c8.944-.6,16.108,2.754,19.41,11.491,2.231,5.9,3.092,12-.446,18.137C882.487,495.76,876.72,499.021,868.929,498.771Zm-5.108-37.551a3.7,3.7,0,0,0-3.758,3.6,3.322,3.322,0,0,0,3.142,3.663c1.653.2,3.121.213,2.577,2.762-.317,1.484.824,2.838,2.382,3.481a2.876,2.876,0,0,0,3.647-.932c.7-.85,1.511-1.714,1-2.872a3.741,3.741,0,0,0-3.543-2.395c-1.569,0-2.034-.735-1.924-2.142a16.863,16.863,0,0,0,0-1.727A3.265,3.265,0,0,0,863.821,461.22Z"/>
          <path class="t" d="M863.821,461.22a3.265,3.265,0,0,1,3.526,3.434,16.863,16.863,0,0,1,0,1.727c-.11,1.407.355,2.142,1.924,2.142a3.741,3.741,0,0,1,3.543,2.395c.506,1.158-.309,2.022-1,2.872a2.876,2.876,0,0,1-3.647.932c-1.558-.643-2.7-2-2.382-3.481.544-2.549-.924-2.561-2.577-2.762a3.322,3.322,0,0,1-3.142-3.663A3.7,3.7,0,0,1,863.821,461.22Z"/>
        </g>
        <text class="u" transform="translate(906.75 497.896)">нлаин</text>
      </g>
    </g>
  </g>
  <g>
    <g>
      <path class="o" d="M802.507,831.037c-4.249-9.377-14.353-15.02-24.517-16.654s-20.533.105-30.68,1.839c-8.56,6.6-11.813,14.608-16.06,23.1-1.5,3,55.5,27,55.5,27Z"/>
      <path class="v" d="M803.8,830.28c-7.188-14.619-24.167-18.864-39.234-17.887-4.643.3-9.255.987-13.842,1.739-4.3.7-6.2,2.093-9.236,5.378a46.551,46.551,0,0,0-5.864,8.034c-1.826,3.1-4.953,7.469-5.671,11.023-.848,4.195,7.631,7.07,10.473,8.51,9.011,4.564,18.26,8.673,27.5,12.744q9.18,4.042,18.421,7.95a1.492,1.492,0,0,0,1.694-.689L803.8,831.794c.781-1.748-1.8-3.276-2.59-1.514l-15.757,35.287,1.694-.689c-10.9-4.592-23.078-9.916-34.242-15.109-6.172-2.87-12.716-5.609-18.415-9.374-.375-.247-1.637-.825-1.772-1.3-.116-.406,3.113-5.677,3.75-6.886,3.361-6.376,7.585-13.67,15.053-15.184,17.18-3.484,40.739-3.432,49.689,14.769C802.064,833.526,804.652,832.008,803.8,830.28Z"/>
    </g>
    <g>
      <path class="o" d="M696.75,881.325c.193-15.316,11.379-38.147,24.37-46.262,1.985-1.24,4.19-2.359,6.529-2.277,2.291.079,4.367,1.3,6.332,2.475,10.107,6.073,27.931,13.726,36.269,22.064,1.5,1.5-3,39-3,39Z"/>
      <path class="v" d="M698.25,881.325c.437-14.546,7.868-30.472,18.238-40.631,4.062-3.98,9.373-8.025,15.239-5.011,2.832,1.454,5.538,3.2,8.349,4.7,6.867,3.67,13.866,7.135,20.433,11.336,2.378,1.521,7.093,3.781,8.431,6.292.467.877.111,2.733.084,3.676-.129,4.4-.559,8.8-.97,13.185q-1.008,10.74-2.3,21.453l1.9-1.447-70.5-15c-1.883-.4-2.688,2.491-.8,2.893l70.5,15a1.53,1.53,0,0,0,1.9-1.446q1.132-9.458,2.062-18.938c.441-4.5.869-9.013,1.113-13.531.106-1.956.664-4.932-.155-6.818-1.7-3.917-8.84-7.4-12.269-9.472-6.229-3.755-12.751-6.982-19.146-10.436-5.108-2.759-10.394-7.334-16.5-5.148-5.4,1.935-9.99,6.692-13.483,11.055-8.478,10.59-14.709,24.6-15.12,38.288C695.192,883.256,698.192,883.254,698.25,881.325Z"/>
    </g>
    <g>
      <path class="o" d="M687.75,921.825c-2.873-3.341-5.129-15.148-5.859-20.632s-.57-11.58,2.955-15.844c1.936-2.343,4.673-3.853,7.342-5.307,5.426-2.958,10.854-5.917,16.4-8.644,3.606-1.774,7.342-3.471,11.336-3.91,5.9-.648,11.822,1.548,16.719,4.894s14.413,7.749,18.607,11.943c3,3,6,39,6,39Z"/>
      <path class="v" d="M689.045,921.067c-3.471-4.611-4.325-11.707-5.251-17.26-.695-4.171-1.278-8.649-.131-12.8,1.351-4.888,5.1-7.349,9.282-9.672,7.842-4.358,16.763-10.5,25.681-12.141,9.516-1.749,17.12,4.58,24.85,9,4.391,2.51,10.329,4.792,11.707,10.034a107.966,107.966,0,0,1,2.311,13.65c.919,7.127,1.656,14.283,2.256,21.445l1.5-1.5-73.5-1.5c-1.931-.04-1.931,2.96,0,3l73.5,1.5a1.51,1.51,0,0,0,1.5-1.5q-.836-9.974-2.062-19.912c-.546-4.39-1.115-8.794-1.982-13.134-.468-2.345-.856-5.094-2.395-7.015-3.836-4.787-11.18-7.438-16.306-10.533-5.824-3.516-11.38-7.019-18.473-6.851-7.531.179-14.659,4.607-21.127,8.024-5.855,3.094-14.013,6.03-17.734,11.894-3.54,5.58-2.8,12.609-1.77,18.806.968,5.806,1.909,13.135,5.554,17.978C687.6,924.105,690.208,922.612,689.045,921.067Z"/>
    </g>
    <g>
      <path class="o" d="M665.25,975.825c.065-7.465-2.492-25.008,1.5-39,.947-3.321,12-19.5,12-19.5s7.119-2.217,9.312-2.876l15.834-4.763c4.028-1.211,8.208-2.436,12.375-1.868,8.355,1.139,16.372,9.944,20.979,17.007h0c3,4.5,0,60,0,60Z"/>
      <path class="v" d="M666.75,975.825c-.042-11.871-1.859-23.661.663-35.439,1.577-7.362,6.967-13.879,11.1-20.031a13.665,13.665,0,0,1,1.5-2.221c-1.416,1.372,2.082-.278,2.973-.554,5.335-1.653,10.686-3.251,16.035-4.86,7.332-2.205,14.981-5.43,22.334-1.621,6.107,3.163,10.842,8.864,14.6,14.483,1.068,1.6,3.666.1,2.59-1.515l-1.333-2-2.591,1.515c2.392,3.588,2.248,7.447,2.373,11.693.2,6.9.068,13.819-.106,20.721q-.365,14.42-1.138,28.829l1.5-1.5-72-9c-1.911-.239-1.894,2.763,0,3l72,9c.835.1,1.461-.774,1.5-1.5q.831-15.435,1.188-30.894c.154-6.864.286-13.751-.013-20.613-.186-4.239-.339-7.689-2.713-11.251-1.066-1.6-3.666-.1-2.591,1.515l1.334,2,2.59-1.515c-7.436-11.108-17.434-20.352-31.562-16.827-7.3,1.822-14.506,4.278-21.7,6.49-2.593.8-6,1.177-7.969,3.045-2.467,2.338-4.253,6.342-6.081,9.194-2.041,3.183-4.492,6.507-5.8,10.083-4.586,12.518-1.726,26.83-1.681,39.773A1.5,1.5,0,0,0,666.75,975.825Z"/>
    </g>
    <g>
      <path class="o" d="M655.4,1014.422c1.562-6.036-.152-12.361-1.337-18.482s-1.7-12.96,1.807-18.112c2.935-4.31,8.032-6.478,12.634-8.928,4.737-2.521,9.21-5.555,14.127-7.7s10.471-3.376,15.67-2.048c7.74,9.651,20.892,13.607,28.487,23.373,2.958,3.8-9.042,48.8-9.042,48.8Z"/>
      <path class="v" d="M656.85,1014.821c1.476-7.177-.462-13.767-1.617-20.823-1.586-9.683.816-16.681,9.577-21.468,6.75-3.689,13.491-8.263,20.736-10.865,4.175-1.5,9.392-2.659,13.153.217,2.424,1.853,4.483,4.2,6.982,6.019,5.486,4,11.583,7.223,16.559,11.9,3.32,3.117,3.751,4.311,3.325,8.555-.829,8.268-2.877,16.49-4.771,24.564q-2.12,9.034-4.49,18.011l1.845-1.048-62.347-16.9a1.5,1.5,0,0,0-.8,2.892l62.346,16.9a1.522,1.522,0,0,0,1.845-1.048q2.517-9.453,4.719-18.99c2.007-8.623,4.539-17.7,4.821-26.6.118-3.743-1.054-5.234-3.839-7.958-5.246-5.135-11.834-8.542-17.7-12.867a48.878,48.878,0,0,1-4.829-3.973c-1.043-1-2.047-2.824-3.3-3.483-2.72-1.425-7.114-.833-9.979-.279-8.288,1.6-15.27,6.829-22.6,10.693-6.54,3.448-12.693,7-14.35,14.787-2.222,10.436,3.969,20.527,1.821,30.968C653.57,1015.908,656.461,1016.713,656.85,1014.821Z"/>
    </g>
    <g>
      <path class="o" d="M630.75,1077.825c1.178-11.859,0-25.5-.165-39,10.951-7.274,18.165-18,27.635-27.764,15.837,2.922,32.213,3.732,47.51,8.766,3.02,1-11.98,58-11.98,58Z"/>
      <path class="v" d="M632.25,1077.825c.817-9.134.461-18.289.146-27.438-.142-4.132-1.476-9.326,1.722-12.237,2.8-2.545,5.778-4.8,8.438-7.521,2.969-3.036,5.746-6.25,8.536-9.448,2.428-2.784,5.6-8.179,9.476-8.187,4.145-.009,8.778,1.353,12.9,1.926,4.614.641,9.232,1.272,13.824,2.062,4.572.786,9.122,1.72,13.6,2.958.6.165,3.445.506,3.716.82.217.253-.057,1.063.007,1.366.577,2.744-.948,7-1.472,9.7-1.786,9.192-3.986,18.307-6.222,27.4q-2.241,9.117-4.614,18.2l1.446-1.1h-63a1.5,1.5,0,0,0,0,3h63a1.527,1.527,0,0,0,1.446-1.1c4.232-16.092,8.516-32.305,11.415-48.7.471-2.664,1.44-6.039.994-8.766-.7-4.272-7.975-4.307-11.315-5.061-10-2.256-20.208-3.315-30.329-4.86-2.581-.394-6.4-2-8.8-.836-1.877.906-4.013,4.306-5.343,5.807-1.712,1.933-3.393,3.892-5.1,5.831a119,119,0,0,1-11.156,11.489c-1.616,1.4-4.882,2.921-6.039,4.637-.891,1.321-.4,3.436-.368,4.919.274,11.712,1.14,23.442.093,35.139C629.078,1079.747,632.079,1079.735,632.25,1077.825Z"/>
    </g>
    <g>
      <path class="o" d="M1174.687,836.576a87.128,87.128,0,0,0-19.393-22.18c-2.641-2.145-5.543-4.193-8.9-4.752-3.729-.621-7.481.675-11.039,1.951-10.338,3.708-22.536,4.143-31.015,11.125-5.592,4.605-5.592,22.605-5.592,22.605s9,25.5,15,28.5,61.5-22.5,63-27S1174.687,836.576,1174.687,836.576Z"/>
      <path class="v" d="M1175.982,835.819a92.96,92.96,0,0,0-11.2-14.654c-4.157-4.409-9.107-9.543-14.778-11.964-5.725-2.444-10.9-.366-16.468,1.434-6.293,2.033-12.876,3.016-19.138,5.147-9.156,3.115-14.179,7.386-15.97,16.912-.817,4.345-1.986,9.749-.747,14.08a100.187,100.187,0,0,0,9.033,20.6c2.188,3.9,4.66,8.491,9.654,8.124,5.675-.417,11.509-3,16.745-5,7.516-2.879,14.908-6.1,22.189-9.534,6.607-3.113,13.5-6.234,19.526-10.406,5.256-3.639,4.271-9.5,1.152-14.731a1.5,1.5,0,0,0-2.59,1.514c1.358,2.278,3.3,6.628,1.8,9.133-.7,1.164-2.686,2.039-3.795,2.725a156.533,156.533,0,0,1-13.973,7.433c-11.573,5.629-23.58,11.183-35.989,14.711-4.18,1.189-6.824,2.271-9.67-1.533-4.021-5.375-6.6-12.107-9.071-18.292-1.451-3.633-2.52-5.684-2.369-8.89.329-7.011.732-16.169,7.171-20.354,4.961-3.226,10.83-4.628,16.508-6,5.492-1.332,10.812-3.371,16.283-4.668,8.7-2.062,14.981,4.243,20.651,9.925a88.787,88.787,0,0,1,12.45,15.815C1174.411,838.968,1177.008,837.463,1175.982,835.819Z"/>
    </g>
    <g>
      <path class="o" d="M1127.213,852.743c5.219-4.367,10.485-8.766,16.485-11.978s12.811-4.238,19.615-4.346c5.937-.094,12.747.226,17.937,2.906s19.035,13.9,20.916,16.042,2.1,5.066,1.806,7.9c-1.722,16.558-7.722,21.058-7.722,21.058s-51,16.5-63,9S1127.213,852.743,1127.213,852.743Z"/>
      <path class="v" d="M1128.274,853.8c10.431-8.719,20.148-15.448,34.189-15.862,5.993-.176,12.565-.078,18.03,2.678a61.865,61.865,0,0,1,9.253,6.334c3.027,2.3,6.019,4.676,8.886,7.178,4.4,3.842,4.19,8.282,3.175,13.819-.877,4.785-2.334,12.025-6.523,15.236,1.05-.805-.439.047-1.2.247-1.964.517-3.9,1.184-5.85,1.749-6.238,1.805-12.523,3.459-18.858,4.889a145.343,145.343,0,0,1-21.461,3.528c-4.908.354-11.668.967-15.476-2.845-5.521-5.527-5.371-15.9-5.174-23.109a98.518,98.518,0,0,1,1.393-14.5c.335-1.888-2.555-2.7-2.893-.8-2.038,11.469-3.86,27.067,2.318,37.562,6.991,11.877,27.171,6.188,37.843,3.98,7.9-1.635,15.719-3.664,23.464-5.914,2.528-.735,5.992-1.145,8.127-2.764,4.889-3.708,6.582-12.528,7.45-18.059.692-4.4,1.335-9.171-1.742-12.843-2.392-2.854-5.839-5.155-8.741-7.443a98.585,98.585,0,0,0-11.194-8.106c-5.563-3.233-12.018-3.846-18.34-3.852-6.99-.007-14.1.814-20.495,3.807-6.778,3.172-12.607,8.208-18.3,12.97C1124.67,852.922,1126.8,855.034,1128.274,853.8Z"/>
    </g>
    <g>
      <path class="o" d="M1158.734,878.638c14.585-5.534,47.511-11.1,51.016-9.313,2.985,1.518,18,40.425,18,55.5,0,1.5-76.5,13.5-76.5,13.5l-4.5-43.5Z"/>
      <path class="v" d="M1159.133,880.085a161.226,161.226,0,0,1,25.279-6.586c7.264-1.413,14.917-3.074,22.356-3.013,2.121.018,2.2-.053,3.22,1.63a58.65,58.65,0,0,1,3.636,7.7,225.765,225.765,0,0,1,8.338,23.506c1.088,3.672,2.087,7.375,2.894,11.119.354,1.644.682,3.3.929,4.962.122.824.125,5.336,1.06,4.265-1.105,1.267-7.261,1.66-9.148,2.022-12.725,2.437-25.522,4.513-38.307,6.608q-14.262,2.336-28.539,4.583l1.9,1.447-3.678-35.559c-.239-2.306-.543-4.616-.717-6.928-.051-.668.112-1.425-.273-.306a10.361,10.361,0,0,1,1.52-2.054l10.427-14.083c1.15-1.553-1.453-3.05-2.59-1.514-3.6,4.865-7.294,9.675-10.811,14.6-2.074,2.905-1.039,5.618-.674,9.142l3.8,36.7a1.533,1.533,0,0,0,1.9,1.446c23.159-3.634,46.412-7.092,69.4-11.69,1.895-.379,6.74-.575,7.977-2.459,1.037-1.58-.086-5.285-.352-7.02a110.229,110.229,0,0,0-2.836-12.639,226.139,226.139,0,0,0-9.03-26.245c-1.349-3.262-3.148-10.148-6.662-11.84-1.974-.95-5.076-.36-7.137-.188-4.414.368-8.814,1.043-13.178,1.782-10.605,1.8-21.39,3.975-31.5,7.72C1156.541,877.857,1157.317,880.757,1159.133,880.085Z"/>
    </g>
    <g>
      <path class="o" d="M1238.25,974.325c4.5-10.5,6.782-48.036,1.5-57-6.046-4.97-48.071-5.464-55.5-3-10.853,3.6-13.5,12-13.5,18v52.5Z"/>
      <path class="v" d="M1239.7,974.723c2.563-6.3,3.228-13.517,3.857-20.232a138.648,138.648,0,0,0,.3-26.214c-.407-4.192-.556-11.042-4.883-13.127-5.151-2.483-11.891-2.665-17.478-3.108a219.034,219.034,0,0,0-24.333-.561c-5.555.18-11.45.225-16.548,2.7-12.9,6.265-11.36,19.563-11.36,31.584v39.059a1.525,1.525,0,0,0,1.9,1.446l67.5-10.5c1.9-.3,1.094-3.187-.8-2.893l-67.5,10.5,1.9,1.447V938.21c0-4.8-.368-9.67,1.944-14.077,6.58-12.544,26.039-10.008,37.753-9.615a127.972,127.972,0,0,1,20.674,1.919c1.622.324,4.648.6,5.882,1.841,1.574,1.588,1.855,5.911,2.127,7.988,1.087,8.3.808,16.858.179,25.181-.561,7.426-1.168,15.5-4,22.479C1236.077,975.713,1238.978,976.491,1239.7,974.723Z"/>
    </g>
    <g>
      <path class="o" d="M1262.25,1025.325c3.051-17.329,3.7-45.255,0-48-5.731-4.257-10.516-11.84-24-18-7.987,1.514-25.709,2.177-32.662,5.264s-17.949,10.423-21.338,17.236l4.5,48Z"/>
      <path class="v" d="M1263.7,1025.723a188.613,188.613,0,0,0,2.523-26.489c.175-6.356.619-13.6-1.223-19.785a7.613,7.613,0,0,0-2.546-3.868c-2.741-2.525-5.442-5.13-8.232-7.6a61.564,61.564,0,0,0-9.149-6.772c-1.8-1.079-4.386-2.987-6.42-3.328-1.308-.219-3.251.406-4.523.574-8.193,1.084-16.6,1.371-24.65,3.336-7.574,1.847-14.722,6.646-20.433,11.835-3.224,2.93-6.5,5.951-6.084,10.434l1.357,14.474,2.934,31.294a1.525,1.525,0,0,0,1.5,1.5l73.5-4.5c1.918-.118,1.931-3.119,0-3l-73.5,4.5,1.5,1.5-2.065-22.03-1.532-16.339c-.246-2.622-1.406-6.6-.864-9.215.4-1.923,2.865-4.087,4.311-5.5a56.418,56.418,0,0,1,11.681-8.534c7.014-3.969,14.643-4.784,22.549-5.658,3.642-.4,7.294-.747,10.925-1.248,4.174-.576,7.457,1.826,10.87,4.13a83.91,83.91,0,0,1,14.656,12.639c3.685,4.09,2.557,13.33,2.493,18.45a183.141,183.141,0,0,1-2.47,28.4C1260.482,1026.814,1263.372,1027.626,1263.7,1025.723Z"/>
    </g>
    <g>
      <path class="o" d="M1283.25,1077.825c1.519-12.279,3.354-38.736,3-40.5-.672-3.349-13.243-12.255-19.5-15-7.812-3.428-27.884-3.533-36.294-1.181s-16.728,6.955-21.057,14.539c-2.649,4.642,10.851,42.142,10.851,42.142Z"/>
      <path class="v" d="M1284.75,1077.825c.87-7.195,1.469-14.423,2.014-21.648.437-5.78,1.284-11.817,1.029-17.621-.185-4.2-4.058-6.869-7.151-9.271-4.787-3.715-10.188-7.608-16.084-9.309-12.93-3.732-29.912-3.217-42.156,2.551-5.211,2.454-13.4,7.5-14.729,13.691-.794,3.693.8,8.395,1.68,11.924a313.506,313.506,0,0,0,9.451,30.081,1.549,1.549,0,0,0,1.446,1.1h63a1.5,1.5,0,0,0,0-3h-63l1.446,1.1q-3.618-10.072-6.722-20.328a146.082,146.082,0,0,1-3.8-14.488c-1.144-5.94.168-8.629,5.189-12.814,11.522-9.605,28.93-10.162,43.1-7.849,5.984.977,10.853,3.7,15.8,7.1,3.436,2.366,9.1,5.546,9.524,10.017.522,5.5-.607,11.624-1.021,17.109-.545,7.225-1.144,14.453-2.014,21.648C1281.519,1079.737,1284.521,1079.72,1284.75,1077.825Z"/>
    </g>
    <g>
      <path class="l" d="M658.179,1020.061c-5.035,10.48-16.406,17.388-19.586,28.571-1.455,5.119-.993,10.561-.518,15.862a10.882,10.882,0,0,0,.867,3.971,3.7,3.7,0,0,0,3.192,2.194c1.823-.051,3.056-1.813,3.983-3.382l21.622-36.635c1.592-2.7,3.227-5.95,1.943-8.806a6.427,6.427,0,0,0-5.305-3.419,14.407,14.407,0,0,0-6.444,1.191"/>
      <path class="l" d="M656.884,1019.3c-5.337,10.427-16.446,17.367-19.737,28.93-1.159,4.07-2.8,29.747,7.538,23,2.208-1.442,3.419-4.368,4.693-6.526l5.9-9.991L667.56,1033.9c2.338-3.961,6.1-9.431,2.728-13.925-3.075-4.094-8.566-3.272-12.754-1.811-1.811.633-1.032,3.532.8,2.893,3.647-1.273,11.184-3.067,10.011,4.846-.358,2.412-2.644,5.248-3.865,7.315l-6.879,11.657-7.863,13.321c-1.211,2.051-2.324,4.914-3.931,6.661q-1.266,3.726-5.887,1.943a26.558,26.558,0,0,1-.421-3.189c-1.027-9.9.566-17.879,6.885-25.671,4.556-5.617,9.762-10.613,13.092-17.119.878-1.715-1.71-3.235-2.59-1.514Z"/>
    </g>
    <g>
      <path class="l" d="M666.009,980.879c-4.077,1.379-6.716,5.586-7.291,9.851s.582,8.578,2.112,12.6a4.746,4.746,0,0,0,1.713,2.544c1.321.792,3.116.13,4.12-1.038a11.692,11.692,0,0,0,1.9-4.173A44.526,44.526,0,0,1,688.42,976.1c1.7-.986,3.547-1.922,4.647-3.555s1.066-4.23-.629-5.232c-1.507-.89-3.413-.132-4.988.632l-17.979,8.725a15.892,15.892,0,0,0-4.354,2.731,5.383,5.383,0,0,0-1.744,4.643"/>
      <path class="l" d="M665.252,979.584a13.675,13.675,0,0,0-8.034,11.146c-.574,4.329.259,13.415,4.265,16.206,2.952,2.058,6.088-.3,7.46-2.975,1.814-3.539,2.644-7.459,4.674-10.947a43.641,43.641,0,0,1,6.768-8.821,45.555,45.555,0,0,1,8.792-6.8c2.051-1.245,4.334-2.37,5.445-4.63,1.453-2.957.406-6.756-3.178-7.31-2.248-.346-4.644,1.161-6.549,2.067-3.909,1.86-7.791,3.781-11.686,5.671-4.8,2.33-11.5,4.469-11.336,10.851.051,1.927,3.051,1.934,3,0-.135-5.142,8.8-7.749,12.547-9.569l5.394-2.617c.953-.463,4.257-2.825,5.393-2.618,7.891,1.438-.4,5.433-1.861,6.359q-1.95,1.233-3.768,2.656a45.431,45.431,0,0,0-6.406,6.072,46.874,46.874,0,0,0-8.8,15.213q-.383,1.094-.731,2.2-4.486,3.565-4.99-.547c-1.054-1.525-1.43-5.253-1.53-6.8-.337-5.209,1.619-10.056,6.648-12.216,1.769-.76.243-3.345-1.514-2.59Z"/>
    </g>
    <g>
      <path class="l" d="M684.3,925.356A35.907,35.907,0,0,0,672.86,951.95a96.916,96.916,0,0,1,25.976-19.978c3.5-1.843,7.137-3.493,10.213-5.972s5.588-5.974,5.858-9.915q-14.961,3.784-29.5,9.031"/>
      <path class="l" d="M683.238,924.3A38.391,38.391,0,0,0,671.36,951.95a1.516,1.516,0,0,0,2.561,1.061,98.782,98.782,0,0,1,25.673-19.744c7.25-3.855,15.5-7.739,16.76-16.783a1.522,1.522,0,0,0-1.845-1.845q-14.963,3.832-29.5,9.031c-1.8.645-1.027,3.545.8,2.893q14.546-5.2,29.5-9.032l-1.845-1.845c-1.45,10.392-13.677,13.635-21.392,18.443A101.462,101.462,0,0,0,671.8,950.89l2.56,1.06a35.3,35.3,0,0,1,11-25.533c1.393-1.342-.73-3.462-2.121-2.121Z"/>
    </g>
    <g>
      <path class="l" d="M689.75,891.325l-.732,3.576,20.062.887a10.655,10.655,0,0,0,5.147-.622c2.279-1.1,3.446-3.621,4.439-5.95l4.177-9.8c.578-1.356,1.07-3.148-.039-4.118-.914-.8-2.319-.466-3.473-.088L705.345,879.8a42.332,42.332,0,0,0-9.814,4.16,14.246,14.246,0,0,0-6.429,8.216"/>
      <path class="l" d="M688.3,890.926l-.732,3.576a1.524,1.524,0,0,0,1.446,1.9l16.414.726c3.563.158,7.71.871,10.755-1.445,2.96-2.252,4.131-6.546,5.515-9.791,1.138-2.668,3.977-6.819,3.13-9.926-.557-2.046-2.339-2.711-4.291-2.574-4.432.312-9.646,3.007-13.847,4.385-7.871,2.583-16.247,5.369-19.038,14-.6,1.841,2.3,2.629,2.892.8,2.422-7.483,10.223-9.7,16.944-11.9q4.37-1.434,8.741-2.863c1.539-.5,3.1-1.662,4.527-.5,1.591,1.288.181,2.763-.6,4.627-2.564,6.089-3.858,12.624-11.988,12.32-6.385-.239-12.767-.565-19.15-.847l1.447,1.9.731-3.577c.386-1.884-2.5-2.69-2.892-.8Z"/>
    </g>
    <g>
      <path class="l" d="M723.463,842.187a4.377,4.377,0,0,0-3.8,7.477,7.558,7.558,0,0,0,4.647,1.666c2.264.2,4.73.031,6.5-1.393a5.4,5.4,0,1,0-7.073-8.154"/>
      <path class="l" d="M723.463,840.687a5.9,5.9,0,0,0-6.077,8.261c1.889,4.2,8.368,4.749,12.2,3.341a7.08,7.08,0,0,0,3.773-10.038c-2.2-3.922-7.434-4.163-10.684-1.529-1.5,1.216.634,3.327,2.121,2.121,1.987-1.609,5.294-1.081,6.223,1.465a4.076,4.076,0,0,1-2.941,5.318,10.024,10.024,0,0,1-6.5-.447c-3.31-1.675-1.428-5.8,1.885-5.492,1.922.178,1.91-2.823,0-3Z"/>
    </g>
    <g>
      <path class="l" d="M756.4,821.882a8.646,8.646,0,0,0-10.882,6.235,3.264,3.264,0,0,0,.5,2.822,2.792,2.792,0,0,0,2.86.57,10.817,10.817,0,0,0,2.678-1.5,23.15,23.15,0,0,1,25.25.293,2.7,2.7,0,0,0,2.14.731c.944-.273,1.223-1.506,1.045-2.473-.6-3.288-4.1-5.088-7.222-6.284a38.994,38.994,0,0,0-11.54-2.937,16.1,16.1,0,0,0-11.223,3.222"/>
      <path class="l" d="M756.8,820.435a10.362,10.362,0,0,0-10.246,2.752c-1.959,2.014-3.968,6.314-1.591,8.813,2.683,2.821,6.164-.145,8.626-1.463a21.9,21.9,0,0,1,20.562-.091c2.079,1.124,5.1,3.659,6.9.621,1.657-2.792-.838-6.1-2.965-7.725-7.567-5.775-20.886-7.892-28.833-2.073-1.542,1.129-.047,3.734,1.514,2.591,6.1-4.464,13.353-3.17,20-.733a25.406,25.406,0,0,1,4.742,2.1c1.081.677,3.84,3.611,1.427,3.388-1.72-.158-4.575-2.325-6.441-2.835a25.062,25.062,0,0,0-13.989.263c-1.915.609-3.863,2.288-5.708,2.68q-1.644,2-2.184-.684-2.005-1.787.5-3.185A7.467,7.467,0,0,1,756,823.328c1.872.475,2.671-2.418.8-2.893Z"/>
    </g>
    <g>
      <path class="l" d="M1142.931,816.807a259.636,259.636,0,0,0-28.319,6.564l11.538,14.014a2.933,2.933,0,0,0,1.239,1.033c1.128.374,2.185-.665,2.954-1.572a48.01,48.01,0,0,1,18-13.173,8.071,8.071,0,0,0,2.855-1.643,2.486,2.486,0,0,0,.468-3.025,3.493,3.493,0,0,0-2.505-1.1A47.745,47.745,0,0,0,1140,817.6"/>
      <path class="l" d="M1142.532,815.361a277.382,277.382,0,0,0-28.318,6.564,1.52,1.52,0,0,0-.662,2.507l8.076,9.809c1.375,1.671,3.071,4.989,5.362,5.624,1.92.532,3.167-.79,4.413-1.958,3.3-3.088,6.067-6.256,9.909-8.782,2.961-1.947,6.315-3.045,9.306-4.854,1.5-.909,2.851-2.142,2.859-4.06.024-5.6-10.283-4.249-13.476-4.112-1.923.083-1.933,3.084,0,3,1.521-.065,6.08-.822,7.339.108,3.883,2.869-.971,3.66-2.673,4.512a49.416,49.416,0,0,0-9.689,6.4c-1.627,1.371-2.99,3.143-4.635,4.454-2.9,2.315-3.194,1.673-5.44-1.056l-9.23-11.211-.662,2.508a277.609,277.609,0,0,1,28.319-6.565c1.9-.336,1.093-3.228-.8-2.892Z"/>
    </g>
    <g>
      <path class="l" d="M1171.927,843.7a46.489,46.489,0,0,0-19.522-.841,16.2,16.2,0,0,0-7.541,2.907c-2.122,1.707-3.5,4.583-2.75,7.2a142.288,142.288,0,0,1,34.377-5.854c.677-.031,1.58-.289,1.535-.966-.033-.5-.589-.762-1.064-.912a31.951,31.951,0,0,0-11.463-1.428"/>
      <path class="l" d="M1172.227,842.617c-8.384-2.016-33.491-4.361-31.2,10.653a1.135,1.135,0,0,0,1.384.786,146.493,146.493,0,0,1,23.08-4.881c3.447-.43,7.671-.046,11-.933,1.494-.4,1.636-.253,2.506-1.523a1.107,1.107,0,0,0,0-1.136c-2.118-3.388-10.131-3-13.5-2.9-1.444.047-1.45,2.3,0,2.25,1.919-.061,9.287-.03,9.154,1.152-.006.057-10.579,1.019-11.134,1.1a149.264,149.264,0,0,0-21.7,4.7l1.384.786c-1.883-12.329,22.107-9.406,28.429-7.885,1.408.338,2.008-1.831.6-2.17Z"/>
    </g>
    <g>
      <path class="l" d="M1201.1,875.759l-24.786,3.5c-1.974.279-4.168.685-5.335,2.3a7.5,7.5,0,0,0-1,4.15q-.4,9.618-.8,19.236c-.022.54,0,1.178.451,1.479.562.377,1.3-.07,1.816-.5a221.1,221.1,0,0,0,29.3-29.1"/>
      <path class="l" d="M1200.8,874.674l-17.16,2.425c-3.723.526-9.438.235-12.53,2.747-2.59,2.1-2.248,5.756-2.372,8.752l-.36,8.656c-.1,2.31-1.011,6.307-.271,8.524,1.882,5.64,10.163-4.187,11.917-5.767a240.921,240.921,0,0,0,21.522-22.391c.938-1.094-.646-2.693-1.59-1.591-4.659,5.435-9.44,10.762-14.533,15.8q-3.418,3.378-6.99,6.595-1.863,1.68-3.763,3.316-1.316,1.134-2.646,2.251-2.177,2.18-1.676,0c-.616-1.181.183-4.394.24-5.771l.28-6.733c.187-4.51.375-10.224,5.744-11.137,8.213-1.4,16.536-2.337,24.786-3.5,1.428-.2.82-2.37-.6-2.17Z"/>
    </g>
    <g>
      <path class="l" d="M1189.779,918.285c-1.831.337-2.446,2.9-1.541,4.525s2.7,2.5,4.4,3.281l12.32,5.667a19.649,19.649,0,0,0,6.894,2.189c3.99.238,7.721-1.963,10.8-4.514s5.839-5.557,9.352-7.463l-24.136-4.3c-7.116-1.267-14.938-2.421-21.172,1.238"/>
      <path class="l" d="M1189.211,917.314c-2.95,1.378-3.12,4.8-1.114,7.153,1.242,1.459,3.163,2.213,4.85,3,3.51,1.638,7.035,3.248,10.559,4.857,4.886,2.231,9.224,3.748,14.383,1.5,5.644-2.464,9.461-7.742,14.678-10.88a1.138,1.138,0,0,0-.269-2.056c-8.87-1.58-17.729-3.3-26.626-4.723-6.752-1.081-13.325-1.457-19.549,1.775-1.285.667-.149,2.609,1.136,1.942,7.3-3.788,15.4-2,23.09-.628l21.351,3.8-.269-2.057c-5.552,3.34-10.306,10.625-16.944,11.618-5.113.765-9.778-2.2-14.245-4.258l-4.4-2.024-2.64-1.214q-3.54-1.124-2.855-5.863c1.311-.613.169-2.553-1.136-1.943Z"/>
    </g>
    <g>
      <path class="l" d="M1242.75,966.825c6.757,5.185,10.838,9.563,16.611,15.826L1228.783,997.6c-5.533-8.274-4.033-8.274-14.533-12.774-2.145-.92-13.238-2.044-14.65-3.9-1.378-1.813-.766-4.559.757-6.253s3.718-2.588,5.835-3.428c5.959-2.367,11.968-4.747,18.278-5.885s13.021-.959,18.875,1.658"/>
      <path class="l" d="M1241.955,967.62a140.279,140.279,0,0,1,16.61,15.826l.228-1.767-30.577,14.948,1.539.4c-2.29-3.467-4.164-7.373-7.732-9.7-4.106-2.683-8.629-3.971-13.375-4.863-2.982-.561-9.118-.622-8.528-5.083.576-4.348,9.751-6.432,12.9-7.58,9.766-3.557,20.042-5.739,30.022-1.7,1.341.543,1.925-1.632.6-2.169-10.3-4.17-21.115-1.987-31.218,1.7-4.775,1.742-17.064,4.858-14.451,12.542,1.663,4.891,10.851,4.257,14.878,5.4,3.11.885,7.054,2.563,9.493,4.791,2.289,2.089,3.779,5.245,5.466,7.8a1.157,1.157,0,0,0,1.539.4l30.577-14.948a1.136,1.136,0,0,0,.228-1.767,140.058,140.058,0,0,0-16.611-15.826c-1.128-.881-2.731.7-1.59,1.591Z"/>
    </g>
    <g>
      <path class="l" d="M1225.771,1029.921c-1.724,1.218-.968,3.895-.041,5.792l10.731,21.954a2.41,2.41,0,0,0,1.217,1.386c.754.245,1.518-.293,2.129-.8l23.549-19.456c1.846-1.526,3.89-3.846,2.832-5.995a5.232,5.232,0,0,0-3.19-2.212c-13.593-4.79-23.242-5.8-36.748-.767"/>
      <path class="l" d="M1224.976,1029.125c-2.646,3.112-.539,6.5,1.021,9.689,3.023,6.183,5.879,12.484,9.08,18.576,1.461,2.781,2.824,3.424,5.526,1.66,5.739-3.745,10.9-9.006,16.189-13.375,3.2-2.643,10.5-6.478,10.77-11.269.2-3.536-3.365-4.6-6.095-5.528-12.071-4.114-23.454-4.441-35.516-.138-1.354.483-.771,2.657.6,2.169,7.871-2.807,15.826-4.066,24.122-2.583,3.314.593,8.276,1.25,11.113,3.036,6.451,4.062-2.136,9.047-5.111,11.506l-8.831,7.3-5.151,4.256-2.207,1.823q-3.261,2.534-3.877-.833c-2.263-2.34-3.491-7.142-4.952-10.132-1.347-2.754-7.377-11.87-5.088-14.562.933-1.1-.651-2.7-1.591-1.591Z"/>
    </g>
  </g>
  <g>
    <path class="w" d="M1224.676,1046.98c-2.313-4.321-5.044-8.57-8.841-11.457a17.757,17.757,0,0,0-3.65-2.178c-5.82-2.534-20.655-.145-26.435,2.48,5.78-2.625,20.615-5.014,26.435-2.48a17.757,17.757,0,0,1,3.65,2.178c.665-.448,2.165-1.948,3.284-11.461,1.224-10.409-5.017-29.627-16.5-38.543a37.247,37.247,0,0,0-13.186-6.466c-9.337-2.506-19.583-1.526-27.72,3.65,8.137-5.176,18.383-6.156,27.72-3.65,1.568-.978,4.568-5.478,5.29-9.832,1.659-10,1.494-28.879-7.306-39.865a43.579,43.579,0,0,0-27.036-15.482c-.077.27-.127.443-.13.451,0-.008.053-.181.13-.451a41.4,41.4,0,0,0-10.366-.338,41.4,41.4,0,0,1,10.366.338c.463-1.631,2.042-7.239,2.061-7.286a39.409,39.409,0,0,0-30.864-53.984,27.906,27.906,0,0,0-2.971-.269c.209.452.444.892.644,1.349-.2-.457-.435-.9-.644-1.349a14.221,14.221,0,0,0-8.061,1.792,14.221,14.221,0,0,1,8.061-1.792,80.857,80.857,0,0,0-56.627-44.642c-24.417-4.848-54.033,4.576-72.5,21.487a136.646,136.646,0,0,1,17.823,7.971,136.646,136.646,0,0,0-17.823-7.971c-.414.379-.829.758-1.232,1.145.4-.387.818-.766,1.232-1.145-40.194-14.713-88.658-12.111-126.5,6.788,5.059,3.819,9.936,7.927,14.754,12-4.818-4.077-9.7-8.185-14.754-12-.243.121-.492.234-.734.357.242-.123.491-.236.734-.357-8.1-6.113-16.662-11.48-26.216-14.762-15.271-5.246-38.593.36-50.417,11.573a58.328,58.328,0,0,1,14.4-1.9,58.328,58.328,0,0,0-14.4,1.9,60.651,60.651,0,0,0-32.6,21.239c-10.977,14.168-15.869,37.88-11.6,55.356a47.583,47.583,0,0,1,5.442-2.506c14-5.375,30.808-3.617,42.731,5.486-11.923-9.1-28.726-10.861-42.731-5.486a47.583,47.583,0,0,0-5.442,2.506,55.224,55.224,0,0,0-24.941,28.888c-5.141,13.5-4.888,30.878-.922,44.951a47.244,47.244,0,0,1,38.158-3.443,47.244,47.244,0,0,0-38.158,3.443,44.125,44.125,0,0,0-8.583,6.157c-12.235,11.312-11.452,29.109-13.213,45.685a5.226,5.226,0,0,0,.876,3.306,29.715,29.715,0,0,1,10.388-5.026c8.582-2.167,18.6.5,23.822,7.643-5.223-7.145-15.24-9.81-23.822-7.643a29.715,29.715,0,0,0-10.388,5.026,39.707,39.707,0,0,0-9.96,11c-4.659,7.525-7.377,19.8-9.159,28.468,0,0,524.25.638,543.75.638C1231.218,1078.475,1230.75,1058.325,1224.676,1046.98Z"/>
    <path d="M846.972,908.974a76.379,76.379,0,0,1,100.422,4.712c1.044,1,2.638-.585,1.591-1.591a78.711,78.711,0,0,0-103.6-4.712c-1.132.9.47,2.485,1.591,1.591Z"/>
    <path d="M998.9,896.024c13.181-14.62,32.92-22.783,52.632-20.888,19.594,1.883,37.4,13.53,47.552,30.268a1.126,1.126,0,0,0,1.943-1.136,65.819,65.819,0,0,0-48.012-31.224c-20.736-2.444-41.8,5.965-55.706,21.389-.967,1.073.619,2.669,1.591,1.591Z"/>
    <path d="M884.033,975.522c20.388-14.366,43.73-28.667,69.619-27.644,25.952,1.026,47.825,17.788,67.476,33.082,1.129.879,2.733-.7,1.591-1.591-19.772-15.388-41.406-31.891-67.364-33.649C928.5,943.9,904,958.709,882.9,973.579c-1.175.827-.052,2.779,1.135,1.943Z"/>
    <path d="M781.867,1027.212c13.475-13.1,34.065-14.445,51.219-8.694,19.475,6.53,34.914,21.223,49.551,35.023,1.053.992,2.647-.6,1.591-1.591-15.567-14.677-32.211-30.421-53.31-36.459-17.309-4.953-37.325-2.815-50.642,10.13-1.04,1.011.552,2.6,1.591,1.591Z"/>
    <path d="M999.169,1036.4c16.4-13.359,35.658-26.127,57.41-27.5,18.088-1.139,37.358,6.078,46.681,22.317a1.126,1.126,0,0,0,1.943-1.136c-9.464-16.485-28.782-24.228-47.234-23.5-22.928.9-43.163,14.193-60.391,28.225-1.123.915.477,2.5,1.591,1.591Z"/>
  </g>
  <g>
    <g>
      <path class="x" d="M1049.938,860.652c.812-21.327,2.324-100.658-1.92-150.789l-4.764-.541q-91.576,3.205-182.632,14.475l-.372,9.028c-.522,42.5-.653,76.379-1.175,118.878,0,0,14.955,5.972,19.685,12.587,14.154-2.45,28.544-3.162,42.892-3.871,12.462-.615,25.162-1.207,37.219,2.007,3.265.871,6.527,2.025,9.9,1.97,4.806-.079,9.181-2.571,13.6-4.463,10.653-4.56,22.488-4.714,34.063-5.262C1023.75,854.325,1049.938,860.652,1049.938,860.652Z"/>
      <path d="M1050.688,860.652c1.878-50.073,2.241-100.834-1.92-150.789a.779.779,0,0,0-.75-.75c-12.53-1.425-25.659.257-38.232.9q-25.092,1.284-50.149,3.174-49.618,3.744-99.015,9.859a.772.772,0,0,0-.75.75c-1.752,42.566-1.028,85.307-1.547,127.906a.776.776,0,0,0,.55.724c6.841,2.761,14.747,6.473,19.355,12.394a.754.754,0,0,0,.729.192,349.024,349.024,0,0,1,57.705-4.329,100.131,100.131,0,0,1,14.7.964c4.716.708,9.184,2.417,13.866,3.179,7.08,1.151,12.6-2.383,18.949-4.822,21.377-8.21,44.167-3.784,65.556,1.37.938.226,1.339-1.22.4-1.447-11.7-2.819-24.191-6.437-36.306-5.888-11.449.518-22.674,1.242-33.305,5.894-2.863,1.253-5.715,2.739-8.8,3.362-3.86.778-7.34-.163-11.019-1.141a87.018,87.018,0,0,0-19.354-2.884c-13.671-.5-27.592.586-41.216,1.681-5.915.475-11.8,1.555-17.707,1.989-2.151.158-2.745.447-4.454-.754-.9-.628-1.679-1.586-2.545-2.276a46.26,46.26,0,0,0-5.261-3.557c-2.877-1.705-6.379-2.766-9.12-4.624-.258-.176-1.5-.415-1.7-.721-.066-.1.546-4.717.552-5.227l.066-5.818q.225-20.268.389-40.535c.2-23.683-.139-47.454.835-71.118.034-.843-.287-3.386.165-4.014.237-.329,6.087-.583,7.1-.7q10.761-1.291,21.535-2.47,21.549-2.357,43.142-4.264,42.2-3.726,84.535-5.733,9.843-.466,19.688-.839c2.214-.084,4.445-.267,6.653-.131a10.374,10.374,0,0,1,2.512.286c1.945.709.374-.321.913,1.316,1.3,3.934.713,9.782.951,13.933q.446,7.8.744,15.6c1.556,39.715,1.558,79.637.069,119.359C1049.152,861.617,1050.652,861.615,1050.688,860.652Z"/>
    </g>
    <g>
      <path class="y" d="M878.25,852.825c-2.567-35.436-1.312-65,0-100.5l-1.5-12c45.6-4.226,96.172-4.482,141.89-7.187.61-.313,13.922-1.8,13.922-1.8-2.839,41.408-2.954,75.6.188,116.988l-13.5,1.5c-54.957,0-69.631-.111-124.5,3Z"/>
      <path d="M879,852.825c-1.523-21.549-1.729-43.127-1.2-64.717.277-11.276.762-22.544,1.127-33.817a35.127,35.127,0,0,0-.388-5.653c-.212-1.7-1.619-6.152-.966-7.727.247-.593,9.718-.741,11.73-.895q8.209-.63,16.43-1.119c10.844-.656,21.7-1.163,32.549-1.612,21.683-.9,43.376-1.541,65.053-2.583,7.079-.34,14.027-.779,21.041-1.654,1.766-.221,5.536-1.444,7.182-.847.211.076.6-.2.791-.09-.685-.4-.825,3.295-.8,3.149a72.692,72.692,0,0,0-.528,8.678c-1.224,21.6-1.681,43.236-1.1,64.864q.428,15.876,1.517,31.723c.032.477.98,7.223,1.093,7.074a9.25,9.25,0,0,1-2.46.273l-8.148.905c-7.711.857-15.656.294-23.411.3-8.517.006-17.034.023-25.55.1-31.6.284-63.128,2.9-94.715,2.9a.75.75,0,0,0,0,1.5c19.153,0,38.2-1.283,57.34-2.025,23.223-.9,46.455-.972,69.693-.976a244.563,244.563,0,0,0,27.467-1.5.763.763,0,0,0,.75-.75,821.116,821.116,0,0,1-.188-116.988.751.751,0,0,0-.75-.75c-51.692,5.791-103.981,4.25-155.812,8.988-.364.033-.8.318-.75.75.491,3.929,1.315,7.949,1.488,11.9.479,10.932-.825,22.2-1.117,33.143-.6,22.5-.458,44.992,1.129,67.454C877.568,853.782,879.068,853.789,879,852.825Z"/>
    </g>
    <path d="M866.916,735.574l.121,26.5a.75.75,0,0,0,1.5,0l-.121-26.5a.75.75,0,0,0-1.5,0Z"/>
    <path d="M867.159,775.821q-.424,13.632.083,27.254c.036.962,1.536.967,1.5,0q-.508-13.629-.083-27.254c.031-.965-1.469-.964-1.5,0Z"/>
    <path d="M929.274,728.639q47.177-3.594,94.459-5.5c.962-.039.967-1.539,0-1.5q-47.275,1.9-94.459,5.5c-.956.073-.964,1.574,0,1.5Z"/>
    <path d="M1032.747,722.969l6.252-.188c.963-.029.967-1.53,0-1.5l-6.252.188c-.963.029-.967,1.529,0,1.5Z"/>
    <g>
      <path d="M921.824,808.423q-1.006.813-2.5,1.879t-3.512,2.349Q914,813.76,912.6,814.565a21.8,21.8,0,0,1-2.345,1.206,12.36,12.36,0,0,1-2.947,1.018,17.576,17.576,0,0,1-3.2.371,4.848,4.848,0,0,1-1.147-.125q-.636-.138-1.358-.325c-.6-.146-1.1-.271-1.513-.374a5.653,5.653,0,0,0-1.029-.18l-.42-.4-.993-.111a3.226,3.226,0,0,1-1.571-.613,12.839,12.839,0,0,1-2.007-1.662,13.994,13.994,0,0,1-1.7-1.91,7.643,7.643,0,0,1-.947-1.656l-1-2.921q-.516-1.494-.777-2.414a4.259,4.259,0,0,1-.236-1.194l.337-1.549q-.292-.783-.459-1.29a2.986,2.986,0,0,1-.173-.785q-.008-.273.128-1.683t.38-3.915q.226-.484.483-1.177a15.2,15.2,0,0,0,.473-1.554l-.121-.752a2.031,2.031,0,0,1,.1-.636,7.788,7.788,0,0,1,.3-.813q.742-1.7,1.485-3.431t1.487-3.36a16.867,16.867,0,0,1,1.7-2.578q1.044-1.327,2.409-2.768c.2-.233.441-.537.728-.909s.63-.78,1.028-1.224a11.173,11.173,0,0,0,1.391-1.081q.819-.723,1.953-1.847c.224-.1.5-.23.81-.4s.7-.373,1.146-.612a2.739,2.739,0,0,0,.419-.352c.166-.165.36-.341.584-.531a10.19,10.19,0,0,1,2.706-1.094,14.711,14.711,0,0,1,3.056-.762,13.469,13.469,0,0,1,2.669.156,4.381,4.381,0,0,1,1.759.658l1.1.178a2.908,2.908,0,0,1,2.067,2.038,15.756,15.756,0,0,1,.777,5.12q.04,1.577.03,2.518a9.96,9.96,0,0,1-.07,1.287q-.18,1.032-.395,2.6t-.574,3.628a8.036,8.036,0,0,1-.415,1.809q-.394,1.263-1.029,3.128a30.9,30.9,0,0,1-1.15,3.095q-.484,1.059-.823,1.169-1.355.378-2.911.828a3.228,3.228,0,0,1-1.062-.094.411.411,0,0,1-.317-.386,3.694,3.694,0,0,1,.1-.757,3.776,3.776,0,0,0,.1-.722q-.135-1.3-.271-2.632a12.323,12.323,0,0,1,.226-1.89q.238-1.412.729-3.616.519-2.412.926-3.809a6.722,6.722,0,0,1,.67-1.748,7.358,7.358,0,0,0,1.4-1.8,3.247,3.247,0,0,0,.421-1.535,3.035,3.035,0,0,0-.5-1.667,2.87,2.87,0,0,0-1.41-1.061q-.892-.183-1.8-.349t-1.805-.417a10.761,10.761,0,0,1-1.27.443l-.967.264a9.192,9.192,0,0,0-4.334,2.234,19.756,19.756,0,0,0-3.891,4.93,31.2,31.2,0,0,0-2.393,5.422,25.678,25.678,0,0,0-1.162,5.425q-.115.828-.29,2.047t-.509,2.874q.335,1.02.594,1.87l-.263,3.125a1.986,1.986,0,0,0,.324.7q.322.522,1,1.533a7.688,7.688,0,0,1,.717,1.353,9.227,9.227,0,0,1,.524,1.768,1.965,1.965,0,0,0,.707.943c.348.288.685.543,1.009.761a10.684,10.684,0,0,0,3.184,2.3,7.987,7.987,0,0,0,3.555.715c.113,0,.538-.071,1.276-.2s1.751-.338,3.042-.623a5.094,5.094,0,0,1,.893-.5q.558-.252,1.336-.546a4.4,4.4,0,0,1,1.341-1.011,3.239,3.239,0,0,1,1.256-.323q.165-.246.412-.593a7.327,7.327,0,0,1,.647-.77,7.734,7.734,0,0,0,1.852-1.126,12.445,12.445,0,0,0,1.6-1.6Q921.818,808.252,921.824,808.423Z"/>
      <path d="M926.384,766.914a19.162,19.162,0,0,1,3.041-.693,29.956,29.956,0,0,1,3.665-.3,7.514,7.514,0,0,1,1.113.092,7.537,7.537,0,0,0,1.181.089,8.177,8.177,0,0,1,1,.182q.378.095,1.031.214l.949-.3a1.64,1.64,0,0,1,.673.24c.242.143.536.3.883.474a8.082,8.082,0,0,1,.775-.431,1.04,1.04,0,0,1,.846.374,2.214,2.214,0,0,1,.455,1.1q.014.548.027,1.078a9.494,9.494,0,0,1-.04,1.115,3.87,3.87,0,0,0,.056.856,8.245,8.245,0,0,1,.09.887.753.753,0,0,1-.157.552.6.6,0,0,1-.44.183,14.727,14.727,0,0,1-2.566-.158,15.825,15.825,0,0,1-2.544-.605q-1.087.232-1.9.357a3.34,3.34,0,0,0-.951.229c-.2.1-.3.213-.3.35a3.249,3.249,0,0,0,.982,1,2.261,2.261,0,0,1,.565.722,11.049,11.049,0,0,1,.687,1.507,3.786,3.786,0,0,1,.206.714,4.394,4.394,0,0,1,.068.65,14.8,14.8,0,0,1-.092,1.8,15.726,15.726,0,0,1-.263,1.772q-.275,1.341-.422,2.221c-.1.584-.18,1.027-.241,1.324a6.747,6.747,0,0,0-.082.825c-.014.321-.028.686-.04,1.1a5.815,5.815,0,0,1-.241,1.29q-.22.777-.434,1.776a5.913,5.913,0,0,1-.077,1.03q-.087.587-.239,1.343a7.363,7.363,0,0,1-.3,1.018,12.917,12.917,0,0,0-.394,1.328q.081.513.129,1.061-.113.963-.223,1.992-.168,1.479-.335,2.989t-.3,2.921c-.129.277-.27.589-.42.936a4.715,4.715,0,0,0,.1.734,4.876,4.876,0,0,1,.105.8,6.641,6.641,0,0,1-.108,1.116,6.626,6.626,0,0,0-.11,1.083q.017.652.017,2.022c0,.913.006,1.6.017,2.054q.186.579.336,1.123a4.549,4.549,0,0,1-.2.776,1.182,1.182,0,0,1-.312.472,11.767,11.767,0,0,1-1.112.643c-.222.234-.4.421-.55.563a.622.622,0,0,1-.387.214,2.011,2.011,0,0,1-1.064-.177.637.637,0,0,1-.321-.542,21.85,21.85,0,0,1,.184-2.2,2.673,2.673,0,0,1-.164-.407c-.061-.18-.152-.407-.273-.677q-.238-2.667-.581-5.469.051-2.02,0-4.076-.026-.958.024-2.418t.24-3.38q.191-1.924.257-3.366c.044-.959.059-1.749.043-2.365a7.994,7.994,0,0,1,.06-1.046c.045-.424.1-.946.148-1.563q.083-.791.169-1.427a7.274,7.274,0,0,0,.074-1.149,5.356,5.356,0,0,0-.049-.581c-.028-.206-.056-.388-.082-.548q.32-.861.477-1.4a2.983,2.983,0,0,0,.153-.706q-.147-.442-.329-.883a9.646,9.646,0,0,0,.4-1.741q.207-1.256.43-3.283-.011-.41-.025-.993c-.009-.387-.01-.856,0-1.4l-.22-.612a3.424,3.424,0,0,0-.5-.159,6.184,6.184,0,0,0-.91-.147l-.436.318-.9.229c-.305.076-.628.165-.966.263q-3.528,1.084-6.986,2.129a.53.53,0,0,1-.449-.211.957.957,0,0,1-.186-.6,2.776,2.776,0,0,1,.153-.723,13.782,13.782,0,0,1,.512-1.35q.039-1.2.121-1.99a6.913,6.913,0,0,1,.209-1.205,3.13,3.13,0,0,1,.8-1.287,3.865,3.865,0,0,1,1.33-.822,15.72,15.72,0,0,1,2.92-.759A10.464,10.464,0,0,1,926.384,766.914Z"/>
      <path d="M939.9,801.664a3.314,3.314,0,0,1-.135-.614c-.016-.158-.025-.3-.028-.41a6.068,6.068,0,0,1,.224-1.942,3.471,3.471,0,0,1,.787-1.373,3.087,3.087,0,0,1,.691-.429q.555-.288,1.47-.689a3.317,3.317,0,0,0,1.023-.761,1.626,1.626,0,0,0,.4-1.055,4.745,4.745,0,0,1,.382-1.107q.292-.622.684-1.352a21.339,21.339,0,0,0,.762-2.384q.629-2.175,1.754-6.384.309-1.276.628-2.209t.541-1.59a17.055,17.055,0,0,1,1.7-3.863,14.845,14.845,0,0,0,1-1.516l0-.171-1.1-1.652,1.294-1.574,1.7-.385q.51-.082.915-.983a7.541,7.541,0,0,1,1.437-1.99,3.249,3.249,0,0,0,.759-.447q.52-.372,1.324-1.044a8.075,8.075,0,0,1,1.209-.886,1.872,1.872,0,0,1,.779-.294,1.924,1.924,0,0,1,1.337.343,1.278,1.278,0,0,1,.435.981,5.2,5.2,0,0,1-.728,2.212,5.182,5.182,0,0,0-.729,2.21.968.968,0,0,0,.167.56.711.711,0,0,0,.365.282l4.145,2.122c.228.085.441.44.639,1.062a15.292,15.292,0,0,1,.508,2.573q.238,1.363.381,2.269a11.239,11.239,0,0,1,.156,1.45q-.2,1.477-.4,2.989.389,1.909.851,4.021-.155,2.023-.34,4.118a.736.736,0,0,0,.094.357.362.362,0,0,0,.261.183,1.353,1.353,0,0,1,.876.284,1,1,0,0,1,.309.747,2.139,2.139,0,0,1-.163.982,1.4,1.4,0,0,1-.514.578,7.305,7.305,0,0,0-.686.5,2.141,2.141,0,0,0-.348.35l.5,2.115-.491,4.882a15.579,15.579,0,0,1-.063,1.579q-.078.961-.25,2.235-.318.934-.471,1.555a3.969,3.969,0,0,0-.151.827q.185.579.338,1.226-.182.932-.38,1.861t-.38,1.828a3.983,3.983,0,0,1-.942,1.789,2.04,2.04,0,0,1-1.416.6.722.722,0,0,1-.677-.376,2.475,2.475,0,0,1-.251-1.178,5.889,5.889,0,0,1,.094-1,6.05,6.05,0,0,0,.1-1,4.285,4.285,0,0,0-.085-.651,4.35,4.35,0,0,1-.086-.718q-.026-.957.11-3.071t.108-3.175c-.124-.383-.247-.781-.371-1.189a12.894,12.894,0,0,0,.1-1.322,7.56,7.56,0,0,0-.066-1.25l.49-.939-.525-3.175-.242-.1a1.82,1.82,0,0,0-.6.169,7.3,7.3,0,0,0-.961.521,9.73,9.73,0,0,1-1.274.324,15.743,15.743,0,0,1-2.3.247q-.607.322-1.149.577a16.426,16.426,0,0,0-1.966.649q-1.187.459-2.743,1.115a14.264,14.264,0,0,1-1.673.744,4.179,4.179,0,0,1-1.276.289.881.881,0,0,0-.676.327,2.314,2.314,0,0,0-.421.9,8.386,8.386,0,0,1-.457,1.52q-.371.97-.983,2.425-.127.38-.347,1.174t-.5,1.967q-.194.452-.451,1.126c-.171.448-.363.974-.576,1.574a7.347,7.347,0,0,1-.06,1.013q-.071.6-.221,1.392c-.106.324-.25.733-.431,1.23s-.413,1.045-.694,1.644a1.727,1.727,0,0,1-.765.826,2.978,2.978,0,0,1-1.325.291,1.114,1.114,0,0,1-.915-.371,1.9,1.9,0,0,1-.355-1.207,11.858,11.858,0,0,1,.154-2.043,19.131,19.131,0,0,1,.586-2.535q.433-1.826.746-2.964a8.344,8.344,0,0,0,.334-1.687c.064-.162.16-.45.286-.864s.273-.921.441-1.521a20.189,20.189,0,0,0,.531-1.966l-.177-.269-1.09.2a.675.675,0,0,1-.554-.295,1.355,1.355,0,0,1-.189-.716,2.371,2.371,0,0,1,.055-.531Q939.775,802.079,939.9,801.664Zm12.248-6.623a10.665,10.665,0,0,0,2.313-.437,10.587,10.587,0,0,1,2.312-.437c.321.061.641.109.961.147.566-.128,1.121-.275,1.664-.437s1.1-.309,1.664-.439a.9.9,0,0,0,.506-.269.717.717,0,0,0,.159-.5q-.095-1.023-.1-1.4a13.75,13.75,0,0,1,.049-1.458q.064-.806.215-1.667l-.45-1.532.1-1.407c-.1-.5-.189-.972-.257-1.416a4.1,4.1,0,0,1-.046-1.111q-.072-.135-.25-.44t-.392-.641q-.356-.573-.729-1.1t-.727-1.06a3.345,3.345,0,0,0-1.049-.933,2.257,2.257,0,0,0-1.135-.28q-.684.016-1.372,1.131a12.254,12.254,0,0,0-1.249,3.355,11.789,11.789,0,0,1-.535,1.144c-.293.578-.713,1.333-1.258,2.259a12.5,12.5,0,0,1-.841,3.26,47.957,47.957,0,0,1-2.072,4.593.919.919,0,0,0-.177.418c-.009.115-.011.242-.008.38a.425.425,0,0,0,.491.469q.341-.008,1.108-.1T952.149,795.041Z"/>
      <path d="M978,774.783a5.61,5.61,0,0,0-.664-1.267q-.515-.793-1.3-2.007-.815-1.109-1.205-1.734a2.243,2.243,0,0,1-.4-.865q-.022-.955,2.124-3.212t3.171-2.282a3.878,3.878,0,0,1,1.109.588l1.024-.026q.933.456,1.917.842t1.917.808a12.034,12.034,0,0,1,3.5,1.948,10.546,10.546,0,0,0,2.229,1.674,11.135,11.135,0,0,0,.842.887q.63.617,1.713,1.549a1.9,1.9,0,0,1,.351.367c.142.178.294.37.459.571q1.512,1.707,2.557,3.154a14.722,14.722,0,0,1,1.587,2.7,15.93,15.93,0,0,1,1.056,3.26,20.888,20.888,0,0,1,.42,3.788,17.534,17.534,0,0,1-.864,6.425,7.491,7.491,0,0,1-3.078,3.945,4.507,4.507,0,0,1-.571.41q-.371.231-.739.515l-.433.455a7.322,7.322,0,0,1-1.894,1.435,32.114,32.114,0,0,1-3.494,1.68q-2.874,1.2-6.051,2.617-.876.466-1.5.757a2.716,2.716,0,0,1-.966.3,2.906,2.906,0,0,0-1.192.167,8.461,8.461,0,0,0-.306,2.753q-.062,1.685-.123,3.3a3.289,3.289,0,0,0,.394,1.346,7.614,7.614,0,0,0,1.15,1.637,12.433,12.433,0,0,1-.666,1.357,15.347,15.347,0,0,1-.937,1.434,5.282,5.282,0,0,1-1.229,1.423,2.143,2.143,0,0,1-1.218.5,1.745,1.745,0,0,1-1.685-1.16,9.326,9.326,0,0,1-.62-3.586,9.665,9.665,0,0,1,.19-1.909q.212-1.152.647-2.846l-.22-1.985c-.3-.13-.6-.27-.883-.424s-.571-.317-.85-.494a2.16,2.16,0,0,1-.885-.594,1.142,1.142,0,0,1-.274-.679q-.01-.412,1.625-1.258a2.424,2.424,0,0,0,1.6-2.182,5.646,5.646,0,0,0-.182-1.091,5.841,5.841,0,0,1-.18-1.059q.257-1.993.582-4.023a8.76,8.76,0,0,0,.14-1.238q.078-1.029.2-2.951.089-.587.271-1.48t.391-2.067l-.27-1.226Zm2.7-4.145a.362.362,0,0,0-.288.11.464.464,0,0,0-.077.309q4.134,4.109,4.185,6.129a43,43,0,0,1-1.18,5.355,50.408,50.408,0,0,1-1.651,5.743l.31,1.431q-.836,3.48-1.233,5.973a22.951,22.951,0,0,0-.363,3.965.812.812,0,0,0,.168.544.542.542,0,0,0,.431.16,4.565,4.565,0,0,0,1.222-.338,16.734,16.734,0,0,0,2.261-1.121q.875-.5,1.753-.932t1.788-.9c.247-.142.534-.327.858-.551s.676-.491,1.056-.8q.8-.638,1.272-1.042c.312-.27.514-.442.6-.512a6.669,6.669,0,0,0,2.156-2.623,8.286,8.286,0,0,0,.66-3.681,11.816,11.816,0,0,0-.355-2.559,15.562,15.562,0,0,0-.938-2.65l-.089-.818a1.813,1.813,0,0,0-.249-.389c-.117-.144-.246-.307-.388-.486a4.132,4.132,0,0,1-.458-.537,4.066,4.066,0,0,1-.466-.877,13.279,13.279,0,0,0-2.046-2.587,44.411,44.411,0,0,0-3.916-3.531q-.28-.232-.628-.55t-.77-.683q-.656-.293-1.554-.663T980.7,770.638Z"/>
      <path d="M1007.584,764.875a19.219,19.219,0,0,1,3.041-.694,29.95,29.95,0,0,1,3.665-.3,7.471,7.471,0,0,1,1.112.091,7.449,7.449,0,0,0,1.182.09,8.214,8.214,0,0,1,1,.181q.378.095,1.03.214l.95-.3a1.642,1.642,0,0,1,.671.24q.366.214.884.475a7.9,7.9,0,0,1,.776-.431,1.038,1.038,0,0,1,.845.373,2.209,2.209,0,0,1,.455,1.1c.009.365.019.724.028,1.078a9.5,9.5,0,0,1-.041,1.115,3.914,3.914,0,0,0,.055.856,8.045,8.045,0,0,1,.091.887.756.756,0,0,1-.156.553.6.6,0,0,1-.439.182,14.737,14.737,0,0,1-2.568-.158,15.708,15.708,0,0,1-2.543-.6q-1.087.234-1.9.357a3.325,3.325,0,0,0-.95.23q-.3.144-.3.35a3.322,3.322,0,0,0,.982,1,2.289,2.289,0,0,1,.565.722A11.119,11.119,0,0,1,1016.7,774a3.7,3.7,0,0,1,.206.715,4.527,4.527,0,0,1,.069.649,15.244,15.244,0,0,1-.092,1.8,15.5,15.5,0,0,1-.264,1.772q-.272,1.341-.422,2.22c-.1.585-.179,1.027-.241,1.324a6.764,6.764,0,0,0-.081.826q-.022.48-.04,1.1a5.874,5.874,0,0,1-.241,1.29q-.222.779-.434,1.777a6,6,0,0,1-.077,1.029c-.058.391-.139.838-.24,1.343a7.356,7.356,0,0,1-.3,1.019,13.078,13.078,0,0,0-.4,1.328c.055.342.1.7.13,1.06q-.112.963-.223,1.992-.169,1.479-.335,2.99t-.3,2.92q-.194.417-.421.937a4.893,4.893,0,0,0,.105.734,5.08,5.08,0,0,1,.1.8,6.651,6.651,0,0,1-.108,1.117,6.753,6.753,0,0,0-.111,1.082q.018.653.017,2.022t.018,2.054q.186.579.335,1.123a4.482,4.482,0,0,1-.2.777,1.179,1.179,0,0,1-.312.471,11.675,11.675,0,0,1-1.112.643c-.222.234-.406.422-.549.564a.633.633,0,0,1-.389.214,1.991,1.991,0,0,1-1.062-.178.635.635,0,0,1-.323-.541c.028-.753.088-1.487.185-2.2a2.763,2.763,0,0,1-.164-.407c-.062-.181-.154-.408-.274-.678q-.237-2.667-.581-5.468.051-2.022,0-4.077c-.015-.639-.008-1.446.026-2.417s.111-2.1.238-3.38.214-2.406.258-3.366.058-1.75.043-2.366a7.968,7.968,0,0,1,.059-1.046q.069-.636.149-1.563c.054-.528.111-1,.169-1.426a7.415,7.415,0,0,0,.074-1.15,5.644,5.644,0,0,0-.049-.581c-.028-.205-.056-.388-.082-.547q.319-.863.477-1.4a3.042,3.042,0,0,0,.153-.707q-.148-.441-.33-.883a9.52,9.52,0,0,0,.4-1.74q.209-1.255.431-3.283c-.007-.273-.016-.6-.025-.993s-.01-.857,0-1.4l-.22-.613a3.437,3.437,0,0,0-.5-.158,6.265,6.265,0,0,0-.909-.148l-.437.318c-.294.076-.594.153-.9.229s-.628.165-.967.264q-3.528,1.085-6.985,2.129a.537.537,0,0,1-.45-.212.967.967,0,0,1-.186-.594,2.766,2.766,0,0,1,.153-.724,14.2,14.2,0,0,1,.513-1.35q.039-1.2.121-1.989a6.946,6.946,0,0,1,.209-1.206,3.125,3.125,0,0,1,.8-1.287,3.883,3.883,0,0,1,1.329-.823,15.717,15.717,0,0,1,2.919-.757A10.424,10.424,0,0,1,1007.584,764.875Z"/>
    </g>
    <g class="z">
      <g>
        <path class="l" d="M848.6,731c-12.056,32.215-24.844,59.572-33.366,72.755-10.684,16.526-24.037,31.436-32.461,49.221l25.657.778A466.67,466.67,0,0,1,883.4,726.269l-35.105,5.479"/>
        <path class="l" d="M847.874,730.8c-8.313,22.124-17.268,44.331-28.791,65.013-11.024,19.787-27.05,36.306-36.96,56.784a.76.76,0,0,0,.647,1.129l25.657.778a.772.772,0,0,0,.723-.551A470.377,470.377,0,0,1,883.929,726.8a.758.758,0,0,0-.73-1.254l-35.1,5.48c-.951.149-.547,1.594.4,1.446l35.1-5.479-.73-1.254a471.611,471.611,0,0,0-47.959,70.11q-10.335,18.531-18.965,37.945-1.833,4.13-3.586,8.292c-1.074,2.549-2.135,7.894-4.009,9.823-2.207,2.272-9.784.8-12.751.706l-12.828-.389.648,1.128c10.077-20.823,26.431-37.613,37.528-57.812,11.277-20.523,20.15-42.455,28.374-64.343.34-.9-1.109-1.295-1.446-.4Z"/>
      </g>
    </g>
  </g>
</svg>
