<svg xmlns="http://www.w3.org/2000/svg" preserveAspectRatio="xMinYMin slice" viewBox="0 0 53 76"><defs><style>.a{fill:#ccc;}</style></defs><title>Drag</title><path d="M4,21.875A3.879,3.879,0,0,1,.125,18V6A3.879,3.879,0,0,1,4,2.125H8A3.879,3.879,0,0,1,11.875,6V18A3.879,3.879,0,0,1,8,21.875Zm.953-19A3.082,3.082,0,0,0,1.875,5.953v9.094a3.082,3.082,0,0,0,3.078,3.078H7.047a3.082,3.082,0,0,0,3.078-3.078V5.953A3.082,3.082,0,0,0,7.047,2.875Z"/><path d="M8,2.25A3.754,3.754,0,0,1,11.75,6V18A3.754,3.754,0,0,1,8,21.75H4A3.754,3.754,0,0,1,.25,18V6A3.754,3.754,0,0,1,4,2.25H8m-3.047,16H7.047a3.207,3.207,0,0,0,3.2-3.2V5.953a3.207,3.207,0,0,0-3.2-3.2H4.953a3.207,3.207,0,0,0-3.2,3.2v9.094a3.207,3.207,0,0,0,3.2,3.2M8,2H4A4.012,4.012,0,0,0,0,6V18a4.012,4.012,0,0,0,4,4H8a4.012,4.012,0,0,0,4-4V6A4.012,4.012,0,0,0,8,2ZM4.953,18A2.962,2.962,0,0,1,2,15.047V5.953A2.962,2.962,0,0,1,4.953,3H7.047A2.962,2.962,0,0,1,10,5.953v9.094A2.962,2.962,0,0,1,7.047,18Z"/><path class="a" d="M7.5,20.875A5.381,5.381,0,0,1,2.125,15.5V5.5a5.375,5.375,0,0,1,10.75,0v10A5.381,5.381,0,0,1,7.5,20.875Z"/><path d="M7.5.25A5.256,5.256,0,0,1,12.75,5.5v10a5.25,5.25,0,0,1-10.5,0V5.5A5.256,5.256,0,0,1,7.5.25M7.5,0A5.516,5.516,0,0,0,2,5.5v10a5.5,5.5,0,0,0,11,0V5.5A5.516,5.516,0,0,0,7.5,0Z"/><path d="M24,21.875A3.879,3.879,0,0,1,20.125,18V6A3.879,3.879,0,0,1,24,2.125h4A3.879,3.879,0,0,1,31.875,6V18A3.879,3.879,0,0,1,28,21.875Zm.953-19a3.082,3.082,0,0,0-3.078,3.078v9.094a3.082,3.082,0,0,0,3.078,3.078h2.094a3.082,3.082,0,0,0,3.078-3.078V5.953a3.082,3.082,0,0,0-3.078-3.078Z"/><path d="M28,2.25A3.754,3.754,0,0,1,31.75,6V18A3.754,3.754,0,0,1,28,21.75H24A3.754,3.754,0,0,1,20.25,18V6A3.754,3.754,0,0,1,24,2.25h4m-3.047,16h2.094a3.207,3.207,0,0,0,3.2-3.2V5.953a3.207,3.207,0,0,0-3.2-3.2H24.953a3.207,3.207,0,0,0-3.2,3.2v9.094a3.207,3.207,0,0,0,3.2,3.2M28,2H24a4.012,4.012,0,0,0-4,4V18a4.012,4.012,0,0,0,4,4h4a4.012,4.012,0,0,0,4-4V6a4.012,4.012,0,0,0-4-4ZM24.953,18A2.962,2.962,0,0,1,22,15.047V5.953A2.962,2.962,0,0,1,24.953,3h2.094A2.962,2.962,0,0,1,30,5.953v9.094A2.962,2.962,0,0,1,27.047,18Z"/><path class="a" d="M27.5,20.875A5.381,5.381,0,0,1,22.125,15.5V5.5a5.375,5.375,0,0,1,10.75,0v10A5.381,5.381,0,0,1,27.5,20.875Z"/><path d="M27.5.25A5.256,5.256,0,0,1,32.75,5.5v10a5.25,5.25,0,0,1-10.5,0V5.5A5.256,5.256,0,0,1,27.5.25m0-.25A5.516,5.516,0,0,0,22,5.5v10a5.5,5.5,0,0,0,11,0V5.5A5.516,5.516,0,0,0,27.5,0Z"/><path d="M44,21.875A3.879,3.879,0,0,1,40.125,18V6A3.879,3.879,0,0,1,44,2.125h4A3.879,3.879,0,0,1,51.875,6V18A3.879,3.879,0,0,1,48,21.875Zm.953-19a3.082,3.082,0,0,0-3.078,3.078v9.094a3.082,3.082,0,0,0,3.078,3.078h2.094a3.082,3.082,0,0,0,3.078-3.078V5.953a3.082,3.082,0,0,0-3.078-3.078Z"/><path d="M48,2.25A3.754,3.754,0,0,1,51.75,6V18A3.754,3.754,0,0,1,48,21.75H44A3.754,3.754,0,0,1,40.25,18V6A3.754,3.754,0,0,1,44,2.25h4m-3.047,16h2.094a3.207,3.207,0,0,0,3.2-3.2V5.953a3.207,3.207,0,0,0-3.2-3.2H44.953a3.207,3.207,0,0,0-3.2,3.2v9.094a3.207,3.207,0,0,0,3.2,3.2M48,2H44a4.012,4.012,0,0,0-4,4V18a4.012,4.012,0,0,0,4,4h4a4.012,4.012,0,0,0,4-4V6a4.012,4.012,0,0,0-4-4ZM44.953,18A2.962,2.962,0,0,1,42,15.047V5.953A2.962,2.962,0,0,1,44.953,3h2.094A2.962,2.962,0,0,1,50,5.953v9.094A2.962,2.962,0,0,1,47.047,18Z"/><path class="a" d="M47.5,20.875A5.381,5.381,0,0,1,42.125,15.5V5.5a5.375,5.375,0,0,1,10.75,0v10A5.381,5.381,0,0,1,47.5,20.875Z"/><path d="M47.5.25A5.256,5.256,0,0,1,52.75,5.5v10a5.25,5.25,0,0,1-10.5,0V5.5A5.256,5.256,0,0,1,47.5.25m0-.25A5.516,5.516,0,0,0,42,5.5v10a5.5,5.5,0,0,0,11,0V5.5A5.516,5.516,0,0,0,47.5,0Z"/><path d="M4,48.875A3.879,3.879,0,0,1,.125,45V33A3.879,3.879,0,0,1,4,29.125H8A3.879,3.879,0,0,1,11.875,33V45A3.879,3.879,0,0,1,8,48.875Zm.953-19a3.082,3.082,0,0,0-3.078,3.078v9.094a3.082,3.082,0,0,0,3.078,3.078H7.047a3.082,3.082,0,0,0,3.078-3.078V32.953a3.082,3.082,0,0,0-3.078-3.078Z"/><path d="M8,29.25A3.754,3.754,0,0,1,11.75,33V45A3.754,3.754,0,0,1,8,48.75H4A3.754,3.754,0,0,1,.25,45V33A3.754,3.754,0,0,1,4,29.25H8m-3.047,16H7.047a3.207,3.207,0,0,0,3.2-3.2V32.953a3.207,3.207,0,0,0-3.2-3.2H4.953a3.207,3.207,0,0,0-3.2,3.2v9.094a3.207,3.207,0,0,0,3.2,3.2M8,29H4a4.012,4.012,0,0,0-4,4V45a4.012,4.012,0,0,0,4,4H8a4.012,4.012,0,0,0,4-4V33a4.012,4.012,0,0,0-4-4ZM4.953,45A2.962,2.962,0,0,1,2,42.047V32.953A2.962,2.962,0,0,1,4.953,30H7.047A2.962,2.962,0,0,1,10,32.953v9.094A2.962,2.962,0,0,1,7.047,45Z"/><path class="a" d="M7.5,47.875A5.381,5.381,0,0,1,2.125,42.5v-10a5.375,5.375,0,0,1,10.75,0v10A5.381,5.381,0,0,1,7.5,47.875Z"/><path d="M7.5,27.25a5.256,5.256,0,0,1,5.25,5.25v10a5.25,5.25,0,0,1-10.5,0v-10A5.256,5.256,0,0,1,7.5,27.25m0-.25A5.516,5.516,0,0,0,2,32.5v10a5.5,5.5,0,0,0,11,0v-10A5.516,5.516,0,0,0,7.5,27Z"/><path d="M24,48.875A3.879,3.879,0,0,1,20.125,45V33A3.879,3.879,0,0,1,24,29.125h4A3.879,3.879,0,0,1,31.875,33V45A3.879,3.879,0,0,1,28,48.875Zm.953-19a3.082,3.082,0,0,0-3.078,3.078v9.094a3.082,3.082,0,0,0,3.078,3.078h2.094a3.082,3.082,0,0,0,3.078-3.078V32.953a3.082,3.082,0,0,0-3.078-3.078Z"/><path d="M28,29.25A3.754,3.754,0,0,1,31.75,33V45A3.754,3.754,0,0,1,28,48.75H24A3.754,3.754,0,0,1,20.25,45V33A3.754,3.754,0,0,1,24,29.25h4m-3.047,16h2.094a3.207,3.207,0,0,0,3.2-3.2V32.953a3.207,3.207,0,0,0-3.2-3.2H24.953a3.207,3.207,0,0,0-3.2,3.2v9.094a3.207,3.207,0,0,0,3.2,3.2M28,29H24a4.012,4.012,0,0,0-4,4V45a4.012,4.012,0,0,0,4,4h4a4.012,4.012,0,0,0,4-4V33a4.012,4.012,0,0,0-4-4ZM24.953,45A2.962,2.962,0,0,1,22,42.047V32.953A2.962,2.962,0,0,1,24.953,30h2.094A2.962,2.962,0,0,1,30,32.953v9.094A2.962,2.962,0,0,1,27.047,45Z"/><path class="a" d="M27.5,47.875A5.381,5.381,0,0,1,22.125,42.5v-10a5.375,5.375,0,0,1,10.75,0v10A5.381,5.381,0,0,1,27.5,47.875Z"/><path d="M27.5,27.25a5.256,5.256,0,0,1,5.25,5.25v10a5.25,5.25,0,0,1-10.5,0v-10a5.256,5.256,0,0,1,5.25-5.25m0-.25A5.516,5.516,0,0,0,22,32.5v10a5.5,5.5,0,0,0,11,0v-10A5.516,5.516,0,0,0,27.5,27Z"/><path d="M44,48.875A3.879,3.879,0,0,1,40.125,45V33A3.879,3.879,0,0,1,44,29.125h4A3.879,3.879,0,0,1,51.875,33V45A3.879,3.879,0,0,1,48,48.875Zm.953-19a3.082,3.082,0,0,0-3.078,3.078v9.094a3.082,3.082,0,0,0,3.078,3.078h2.094a3.082,3.082,0,0,0,3.078-3.078V32.953a3.082,3.082,0,0,0-3.078-3.078Z"/><path d="M48,29.25A3.754,3.754,0,0,1,51.75,33V45A3.754,3.754,0,0,1,48,48.75H44A3.754,3.754,0,0,1,40.25,45V33A3.754,3.754,0,0,1,44,29.25h4m-3.047,16h2.094a3.207,3.207,0,0,0,3.2-3.2V32.953a3.207,3.207,0,0,0-3.2-3.2H44.953a3.207,3.207,0,0,0-3.2,3.2v9.094a3.207,3.207,0,0,0,3.2,3.2M48,29H44a4.012,4.012,0,0,0-4,4V45a4.012,4.012,0,0,0,4,4h4a4.012,4.012,0,0,0,4-4V33a4.012,4.012,0,0,0-4-4ZM44.953,45A2.962,2.962,0,0,1,42,42.047V32.953A2.962,2.962,0,0,1,44.953,30h2.094A2.962,2.962,0,0,1,50,32.953v9.094A2.962,2.962,0,0,1,47.047,45Z"/><path class="a" d="M47.5,47.875A5.381,5.381,0,0,1,42.125,42.5v-10a5.375,5.375,0,0,1,10.75,0v10A5.381,5.381,0,0,1,47.5,47.875Z"/><path d="M47.5,27.25a5.256,5.256,0,0,1,5.25,5.25v10a5.25,5.25,0,0,1-10.5,0v-10a5.256,5.256,0,0,1,5.25-5.25m0-.25A5.516,5.516,0,0,0,42,32.5v10a5.5,5.5,0,0,0,11,0v-10A5.516,5.516,0,0,0,47.5,27Z"/><path d="M4,75.875A3.879,3.879,0,0,1,.125,72V60A3.879,3.879,0,0,1,4,56.125H8A3.879,3.879,0,0,1,11.875,60V72A3.879,3.879,0,0,1,8,75.875Zm.953-19a3.082,3.082,0,0,0-3.078,3.078v9.094a3.082,3.082,0,0,0,3.078,3.078H7.047a3.082,3.082,0,0,0,3.078-3.078V59.953a3.082,3.082,0,0,0-3.078-3.078Z"/><path d="M8,56.25A3.754,3.754,0,0,1,11.75,60V72A3.754,3.754,0,0,1,8,75.75H4A3.754,3.754,0,0,1,.25,72V60A3.754,3.754,0,0,1,4,56.25H8m-3.047,16H7.047a3.207,3.207,0,0,0,3.2-3.2V59.953a3.207,3.207,0,0,0-3.2-3.2H4.953a3.207,3.207,0,0,0-3.2,3.2v9.094a3.207,3.207,0,0,0,3.2,3.2M8,56H4a4.012,4.012,0,0,0-4,4V72a4.012,4.012,0,0,0,4,4H8a4.012,4.012,0,0,0,4-4V60a4.012,4.012,0,0,0-4-4ZM4.953,72A2.962,2.962,0,0,1,2,69.047V59.953A2.962,2.962,0,0,1,4.953,57H7.047A2.962,2.962,0,0,1,10,59.953v9.094A2.962,2.962,0,0,1,7.047,72Z"/><path class="a" d="M7.5,74.875A5.381,5.381,0,0,1,2.125,69.5v-10a5.375,5.375,0,0,1,10.75,0v10A5.381,5.381,0,0,1,7.5,74.875Z"/><path d="M7.5,54.25a5.256,5.256,0,0,1,5.25,5.25v10a5.25,5.25,0,0,1-10.5,0v-10A5.256,5.256,0,0,1,7.5,54.25m0-.25A5.516,5.516,0,0,0,2,59.5v10a5.5,5.5,0,0,0,11,0v-10A5.516,5.516,0,0,0,7.5,54Z"/><path d="M24,75.875A3.879,3.879,0,0,1,20.125,72V60A3.879,3.879,0,0,1,24,56.125h4A3.879,3.879,0,0,1,31.875,60V72A3.879,3.879,0,0,1,28,75.875Zm.953-19a3.082,3.082,0,0,0-3.078,3.078v9.094a3.082,3.082,0,0,0,3.078,3.078h2.094a3.082,3.082,0,0,0,3.078-3.078V59.953a3.082,3.082,0,0,0-3.078-3.078Z"/><path d="M28,56.25A3.754,3.754,0,0,1,31.75,60V72A3.754,3.754,0,0,1,28,75.75H24A3.754,3.754,0,0,1,20.25,72V60A3.754,3.754,0,0,1,24,56.25h4m-3.047,16h2.094a3.207,3.207,0,0,0,3.2-3.2V59.953a3.207,3.207,0,0,0-3.2-3.2H24.953a3.207,3.207,0,0,0-3.2,3.2v9.094a3.207,3.207,0,0,0,3.2,3.2M28,56H24a4.012,4.012,0,0,0-4,4V72a4.012,4.012,0,0,0,4,4h4a4.012,4.012,0,0,0,4-4V60a4.012,4.012,0,0,0-4-4ZM24.953,72A2.962,2.962,0,0,1,22,69.047V59.953A2.962,2.962,0,0,1,24.953,57h2.094A2.962,2.962,0,0,1,30,59.953v9.094A2.962,2.962,0,0,1,27.047,72Z"/><path class="a" d="M27.5,74.875A5.381,5.381,0,0,1,22.125,69.5v-10a5.375,5.375,0,0,1,10.75,0v10A5.381,5.381,0,0,1,27.5,74.875Z"/><path d="M27.5,54.25a5.256,5.256,0,0,1,5.25,5.25v10a5.25,5.25,0,0,1-10.5,0v-10a5.256,5.256,0,0,1,5.25-5.25m0-.25A5.516,5.516,0,0,0,22,59.5v10a5.5,5.5,0,0,0,11,0v-10A5.516,5.516,0,0,0,27.5,54Z"/><path d="M44,75.875A3.879,3.879,0,0,1,40.125,72V60A3.879,3.879,0,0,1,44,56.125h4A3.879,3.879,0,0,1,51.875,60V72A3.879,3.879,0,0,1,48,75.875Zm.953-19a3.082,3.082,0,0,0-3.078,3.078v9.094a3.082,3.082,0,0,0,3.078,3.078h2.094a3.082,3.082,0,0,0,3.078-3.078V59.953a3.082,3.082,0,0,0-3.078-3.078Z"/><path d="M48,56.25A3.754,3.754,0,0,1,51.75,60V72A3.754,3.754,0,0,1,48,75.75H44A3.754,3.754,0,0,1,40.25,72V60A3.754,3.754,0,0,1,44,56.25h4m-3.047,16h2.094a3.207,3.207,0,0,0,3.2-3.2V59.953a3.207,3.207,0,0,0-3.2-3.2H44.953a3.207,3.207,0,0,0-3.2,3.2v9.094a3.207,3.207,0,0,0,3.2,3.2M48,56H44a4.012,4.012,0,0,0-4,4V72a4.012,4.012,0,0,0,4,4h4a4.012,4.012,0,0,0,4-4V60a4.012,4.012,0,0,0-4-4ZM44.953,72A2.962,2.962,0,0,1,42,69.047V59.953A2.962,2.962,0,0,1,44.953,57h2.094A2.962,2.962,0,0,1,50,59.953v9.094A2.962,2.962,0,0,1,47.047,72Z"/><path class="a" d="M47.5,74.875A5.381,5.381,0,0,1,42.125,69.5v-10a5.375,5.375,0,0,1,10.75,0v10A5.381,5.381,0,0,1,47.5,74.875Z"/><path d="M47.5,54.25a5.256,5.256,0,0,1,5.25,5.25v10a5.25,5.25,0,0,1-10.5,0v-10a5.256,5.256,0,0,1,5.25-5.25m0-.25A5.516,5.516,0,0,0,42,59.5v10a5.5,5.5,0,0,0,11,0v-10A5.516,5.516,0,0,0,47.5,54Z"/></svg>