<svg xmlns="http://www.w3.org/2000/svg" viewBox="0 0 805.774 157.737" preserveAspectRatio="xMinYMin meet"><text transform="translate(0 117.794)" font-size="143.767" fill="#29abe2" font-family="Candara-Bold,Candara" font-weight="700">Сапёр</text><rect x="435.774" y="52.063" width="366" height="65.685" rx="12" ry="12" fill="#c69c6d" stroke="#534741" stroke-miterlimit="10" stroke-width="8"/><path d="M484.24 35.706c-.266 2.839-.315 5.721-.862 8.5a6.8 6.8 0 0 0 2.1 6.65A39.994 39.994 0 0 1 496.136 69.7a7.622 7.622 0 0 0 5.057 5.79c4.152 1.621 8.24 3.41 12.324 5.2 1.195.524 2.681.864 2.6 2.733-.082 1.818-1.334 2.549-2.723 3.192-4.377 2.027-8.739 4.088-13.151 6.036a4.17 4.17 0 0 0-2.582 2.952c-1.941 7.739-5.381 14.749-11.027 20.394-3.945 3.943-2.221 8.389-1.635 12.566a41.766 41.766 0 0 1-.147 10.711c-.292 2.542-2.276 1.739-3.7 1.061a34.9 34.9 0 0 1-9.027-6.466c-3.257-3.12-6.514-3.579-10.831-2.607-6.718 1.513-13.685 1.135-20.461.249-2.859-.374-5.042-.265-7.263 1.435a87.179 87.179 0 0 1-10.906 7.17c-2.607 1.436-3.445.838-3.576-2.084-.22-4.886.669-9.678.872-14.522a3.865 3.865 0 0 0-1.073-3.249c-6.539-7.153-11.529-15.261-13.88-24.761a5.432 5.432 0 0 0-3.38-4.034c-3.629-1.653-7.184-3.478-10.712-5.341-3.255-1.719-3.288-2.978-.018-4.766 3.6-1.967 7.248-3.874 11.015-5.477a5.917 5.917 0 0 0 3.638-4.242c2.108-8.625 5.942-16.224 12.532-22.318 2.318-2.143 2.456-4.895 2.087-7.821-.419-3.318-.677-6.656-1-9.986a3.486 3.486 0 0 1 1.889-3.735c2.045-1.107 2 1.218 3.014 1.773a104.055 104.055 0 0 1 12.056 7.684c.725.538 1.369-.288 2.058-.45 8.193-1.925 16.318-1.909 24.268 1.144 2.837 1.089 5.324.748 7.385-1.487 3.08-3.339 7.2-5.294 10.617-8.185a2.662 2.662 0 0 1 2.739-.781c1.343.518.6 1.728.662 2.6.123 1.862.038 3.738.038 5.608zm-32.989 75c13.5.432 23.488-5.217 30.519-17.4 6.131-10.627 4.639-21.2.773-31.422-5.721-15.135-18.132-20.955-33.627-19.907-9.315.63-17.212 4.841-23.332 12.349-4.476 5.492-4.57 12.4-6.852 18.563-2.6 7.018.113 14.136 3.564 20.27 6.404 11.372 15.845 18.41 28.955 17.548z" fill="#32568f"/><path d="M451.251 110.707c-13.11.862-22.556-6.176-28.955-17.551-3.451-6.134-6.161-13.252-3.564-20.27 2.282-6.164 2.376-13.071 6.852-18.563C431.7 46.815 439.6 42.6 448.916 41.974c15.5-1.048 27.906 4.772 33.627 19.907 3.866 10.226 5.358 20.8-.773 31.422-7.031 12.187-17.022 17.836-30.519 17.404zM442.4 45.652a6.415 6.415 0 0 0-6.511 6.231 5.755 5.755 0 0 0 5.444 6.345c2.863.348 5.406.368 4.464 4.786-.548 2.57 1.428 4.915 4.128 6.03a4.983 4.983 0 0 0 6.317-1.616c1.2-1.472 2.618-2.969 1.742-4.975a6.487 6.487 0 0 0-6.14-4.15c-2.718 0-3.522-1.273-3.332-3.709a28.992 28.992 0 0 0 0-2.992c-.101-3.709-2.337-5.881-6.112-5.95z" fill="#8db0da"/><path d="M442.4 45.652c3.774.069 6.01 2.241 6.109 5.95a28.992 28.992 0 0 1 0 2.992c-.19 2.436.614 3.711 3.332 3.709a6.487 6.487 0 0 1 6.14 4.15c.876 2.006-.537 3.5-1.742 4.975a4.983 4.983 0 0 1-6.317 1.616c-2.7-1.115-4.676-3.46-4.128-6.03.942-4.418-1.6-4.438-4.464-4.786a5.755 5.755 0 0 1-5.444-6.345 6.415 6.415 0 0 1 6.514-6.231z" fill="#fdfdfd"/><text transform="translate(516.773 109.191)" font-size="100.888" font-family="Candara,Candara" fill="#32568f">нлаин</text></svg>