<svg xmlns="http://www.w3.org/2000/svg" viewBox="3 3 16 16"><circle cx="11" cy="-1041.36" r="8" transform="matrix(1 0 0 -1 0 -1030.36)" opacity=".98" fill="#1d99f3"/><path d="M15.348 9.553a4.538 4.538 0 0 0-.961-1.436 4.538 4.538 0 0 0-1.436-.96 4.377 4.377 0 0 0-1.746-.358 4.542 4.542 0 0 0-3.1 1.242l-.762-.756c-.117-.12-.252-.148-.404-.082-.156.067-.234.182-.234.346v2.625c0 .102.037.19.111.264a.36.36 0 0 0 .264.111h2.625a.35.35 0 0 0 .346-.234c.066-.153.039-.287-.083-.405l-.802-.808a2.976 2.976 0 0 1 2.04-.803 3.023 3.023 0 0 1 2.12.879 3.022 3.022 0 0 1 .879 2.12 3.023 3.023 0 0 1-.879 2.121 3.02 3.02 0 0 1-.958.642c-.37.159-.757.238-1.163.238-.465 0-.904-.102-1.318-.305a2.94 2.94 0 0 1-1.05-.861c-.026-.04-.071-.063-.134-.07a.21.21 0 0 0-.146.052l-.803.809a.173.173 0 0 0-.05.12.21.21 0 0 0 .038.132 4.41 4.41 0 0 0 1.547 1.198 4.47 4.47 0 0 0 1.916.425c.61 0 1.192-.12 1.746-.358a4.542 4.542 0 0 0 1.436-.96c.402-.403.723-.882.96-1.436a4.379 4.379 0 0 0 .358-1.746c0-.61-.119-1.192-.357-1.746" fill="#fff"/></svg>543-1-.87-1.874-.979-.815 0-1.494.244-2.037.733l-11.162 11.244c-.434.436-.665.991-.692 1.67-.027.68.15 1.29.53 1.833 5.921 7.17 13.09 12.724 21.509 16.661 8.419 3.937 17.3 5.907 26.642 5.907 8.473 0 16.566-1.657 24.279-4.97 7.713-3.313 14.365-7.768 19.961-13.361 5.594-5.596 10.05-12.248 13.361-19.961 3.313-7.713 4.969-15.807 4.969-24.279 0-8.474-1.657-16.564-4.97-24.277" fill="#fff" transform="matrix(.07192 0 0 .07192 6.674 6.768)"/></svg>